<svg width="29" height="29" viewBox="0 0 29 29" fill="none" xmlns="http://www.w3.org/2000/svg">
<g clip-path="url(#clip0)">
<path d="M28.299 23.0792C27.7253 23.7679 26.8754 24.1664 25.979 24.1667H3.02068C2.12429 24.1664 1.27434 23.7679 0.700684 23.0792L11.7811 13.8475L12.929 14.633C13.8746 15.2855 15.1251 15.2855 16.0707 14.633L17.2186 13.8475L28.299 23.0792Z" fill="#A9A9A9"/>
<path d="M28.4683 6.15053L17.2188 13.8476L16.0708 14.633C15.1252 15.2855 13.8748 15.2855 12.9292 14.633L11.7812 13.8476L0.531738 6.13841C1.0978 5.32217 2.02756 4.83472 3.02092 4.83342H25.9792C26.977 4.82815 27.9114 5.32251 28.4683 6.15053Z" fill="#686868"/>
<path d="M11.7813 13.8475L0.700867 23.0792C0.247346 22.5372 -0.000795912 21.8527 5.36956e-05 21.1459V7.85424C-0.00362794 7.24122 0.182096 6.64196 0.531738 6.13843L11.7813 13.8475Z" fill="#888A8D"/>
<path d="M29 7.85426V21.1459C29.0008 21.8527 28.7527 22.5372 28.2992 23.0792L17.2188 13.8476L28.4683 6.15051C28.8162 6.65042 29.0018 7.2452 29 7.85426Z" fill="#888A8D"/>
</g>
<defs>
<clipPath id="clip0">
<rect width="29" height="29" fill="white"/>
</clipPath>
</defs>
</svg>
