<svg width="157" height="70" viewBox="0 0 157 70" fill="none" xmlns="http://www.w3.org/2000/svg">
<g clip-path="url(#clip0)">
<path fill-rule="evenodd" clip-rule="evenodd" d="M2.84717 63.4673H54.9246V68.9429H2.84717V63.4673Z" fill="#C1063B"/>
<path d="M13.3057 23.3415C13.3057 23.3415 17.5666 36.1321 20.9236 46.0994C22.9034 33.4371 26.1744 12.9037 26.1744 12.9037C26.3896 11.5348 27.5517 10.5509 28.9289 10.5509L50.1903 10.337C45.0256 4.47644 37.4507 0.754761 29.015 0.754761C16.0172 0.754761 5.12826 9.52424 1.94336 21.4593L10.5942 21.4165C11.7993 21.4165 12.9184 22.1865 13.3057 23.3415Z" fill="#009789"/>
<path d="M1.03962 27.0632C0.996582 27.5766 0.996582 28.0899 0.996582 28.6032C0.996582 39.9394 7.79677 49.6928 17.6097 54.0133C14.8552 45.7572 9.43226 29.5443 8.57148 27.0204C7.02207 27.0632 3.83717 27.0632 1.03962 27.0632Z" fill="#009789"/>
<path d="M31.339 16.1548C30.7795 19.7482 26.3034 47.9816 25.0122 56.195C26.3034 56.3661 27.6376 56.4944 29.0149 56.4944C44.509 56.4944 57.0334 44.0033 57.0334 28.646C57.0334 24.0687 55.9143 19.7482 53.9345 15.9409C45.2837 15.9837 33.8783 16.112 31.339 16.1548Z" fill="#009789"/>
<path d="M53.9777 15.8982C52.9448 13.8876 51.6536 12.0054 50.1903 10.337L28.9289 10.5509C27.5517 10.5509 26.3896 11.5776 26.1744 12.9037C26.1744 12.9037 22.9465 33.4371 20.9237 46.0994C17.5666 36.0894 13.3057 23.3415 13.3057 23.3415C12.9184 22.1865 11.8424 21.4165 10.6373 21.4165L1.94337 21.4593C1.46994 23.256 1.12563 25.1382 1.03955 27.0632C3.8371 27.0632 7.022 27.0632 8.57141 27.0632C9.43219 29.5871 14.8121 45.8 17.6096 54.0561C19.9338 55.0828 22.43 55.81 25.0554 56.195C26.3466 47.9816 30.8227 19.7482 31.3822 16.1548C33.8784 16.1121 45.2838 15.9837 53.9777 15.8982Z" fill="white"/>
<path d="M68.5249 40.3671H75.5833V41.5649H69.9452V44.9444H74.8947V46.1421H69.9452V51.0188H68.5249V40.3671Z" fill="#009789"/>
<path d="M83.804 50.9761C83.5888 51.1044 83.2875 51.1899 82.9002 51.1899C82.2546 51.1899 81.8242 50.8477 81.8242 49.9922C81.1355 50.8049 80.1887 51.1899 79.0697 51.1899C77.6494 51.1899 76.4873 50.5483 76.4873 49.0083C76.4873 47.2544 77.7785 46.8694 79.1127 46.6127C80.533 46.356 81.7381 46.4416 81.7381 45.4577C81.7381 44.3455 80.8343 44.1744 80.0165 44.1744C78.9405 44.1744 78.1228 44.5166 78.0798 45.6288H76.7886C76.8747 43.7038 78.338 43.0621 80.0596 43.0621C81.4368 43.0621 82.9862 43.3616 82.9862 45.201V49.1794C82.9862 49.7783 82.9862 50.0349 83.3736 50.0349C83.4597 50.0349 83.5888 50.0349 83.7609 49.9494V50.9761H83.804ZM81.7381 47.0405C81.2216 47.3827 80.2748 47.4255 79.414 47.5538C78.5532 47.6822 77.8646 47.9816 77.8646 48.9227C77.8646 49.7783 78.5962 50.0777 79.3709 50.0777C81.0495 50.0777 81.7381 49.051 81.7381 48.3238V47.0405Z" fill="#009789"/>
<path d="M90.2598 45.7572C90.0446 44.7733 89.3991 44.2171 88.3231 44.2171C86.4724 44.2171 85.9129 45.6716 85.9129 47.2544C85.9129 48.6661 86.5585 50.0777 88.194 50.0777C89.4421 50.0777 90.1738 49.3505 90.3459 48.1955H91.6371C91.3358 50.0777 90.1738 51.19 88.194 51.19C85.8268 51.19 84.5356 49.5644 84.5356 47.2544C84.5356 44.9444 85.7407 43.1049 88.194 43.1049C89.9586 43.1049 91.3789 43.9177 91.551 45.7572H90.2598Z" fill="#009789"/>
<path d="M99.5135 51.0189H98.3084V49.7783H98.2654C97.7058 50.7194 96.8451 51.19 95.726 51.19C93.7032 51.19 93.0576 50.035 93.0576 48.3666V43.2761H94.3488V48.495C94.3488 49.4361 94.9513 50.035 95.9412 50.035C97.4907 50.035 98.2223 49.0083 98.2223 47.5966V43.2761H99.5135V51.0189Z" fill="#009789"/>
<path d="M101.493 40.3671H102.784V51.0188H101.493V40.3671Z" fill="#009789"/>
<path d="M106.529 43.276H108.078V44.3882H106.529V49.1794C106.529 49.7783 106.701 49.8638 107.476 49.8638H108.078V50.9761H107.088C105.754 50.9761 105.238 50.7194 105.238 49.3077V44.3882H103.903V43.276H105.238V40.966H106.529V43.276Z" fill="#009789"/>
<path d="M116.126 48.5805C115.782 50.2916 114.534 51.19 112.812 51.19C110.316 51.19 109.154 49.4788 109.068 47.1261C109.068 44.816 110.617 43.1049 112.726 43.1049C115.481 43.1049 116.298 45.6716 116.255 47.5111H110.445C110.402 48.8372 111.177 50.035 112.855 50.035C113.888 50.035 114.663 49.5216 114.878 48.5377H116.126V48.5805ZM114.921 46.3988C114.878 45.201 113.931 44.2172 112.683 44.2172C111.349 44.2172 110.531 45.201 110.445 46.3988H114.921ZM112.941 40.1105H114.577L112.597 42.2494H111.65L112.941 40.1105Z" fill="#009789"/>
<path d="M75.2392 68.9429H73.948V67.9162H73.9049C73.4746 68.7717 72.4847 69.1567 71.4087 69.1567C68.9985 69.1567 67.8364 67.2745 67.8364 65.0928C67.8364 62.9112 68.9985 61.0717 71.3656 61.0717C72.1834 61.0717 73.3024 61.3712 73.8619 62.2695H73.9049V58.2911H75.1961V68.9429H75.2392ZM71.6239 68.0017C73.3454 68.0017 73.991 66.5473 73.991 65.0928C73.991 63.5528 73.3024 62.1839 71.5378 62.1839C69.7732 62.1839 69.2137 63.6812 69.2137 65.1784C69.2567 66.5901 69.9884 68.0017 71.6239 68.0017Z" fill="#009789"/>
<path d="M83.847 66.5044C83.5027 68.2156 82.2546 69.1139 80.533 69.1139C78.0367 69.1139 76.8747 67.4028 76.7886 65.05C76.7886 62.74 78.338 61.0289 80.4469 61.0289C83.2014 61.0289 84.0192 63.5955 83.9761 65.435H78.1658C78.1228 66.7611 78.8975 67.9589 80.576 67.9589C81.609 67.9589 82.3837 67.4456 82.5989 66.4617H83.847V66.5044ZM82.5989 64.3228C82.5558 63.125 81.609 62.1411 80.3608 62.1411C79.0266 62.1411 78.2089 63.125 78.1228 64.3228H82.5989Z" fill="#009789"/>
<path d="M86.085 66.5044C86.1281 67.6595 87.118 68.0017 88.194 68.0017C89.0117 68.0017 90.0877 67.8306 90.0877 66.8467C90.0877 65.8628 88.8396 65.6917 87.5484 65.3922C86.3002 65.0928 85.0091 64.7078 85.0091 63.2105C85.0091 61.6705 86.5585 61.0289 87.8927 61.0289C89.6143 61.0289 90.9915 61.585 91.0776 63.4672H89.7864C89.7003 62.4833 88.8396 62.1839 87.9788 62.1839C87.2041 62.1839 86.3433 62.3978 86.3433 63.1678C86.3433 64.0661 87.6775 64.2372 88.8826 64.4939C90.1738 64.7933 91.4219 65.1783 91.4219 66.6756C91.4219 68.515 89.7003 69.1139 88.1079 69.1139C86.3433 69.1139 84.88 68.4295 84.8369 66.5044H86.085Z" fill="#009789"/>
<path d="M103.387 61.4139C103.214 59.8739 102.182 59.2322 100.718 59.2322C99.5131 59.2322 98.308 59.66 98.308 61.0717C98.308 62.3978 100.03 62.5689 101.751 62.9539C103.473 63.3389 105.194 63.9378 105.194 66.0339C105.194 68.3011 102.956 69.1995 101.019 69.1995C98.6093 69.1995 96.5864 68.0445 96.5864 65.435H97.9206C97.9206 67.2317 99.427 68.0017 101.062 68.0017C102.354 68.0017 103.774 67.6167 103.774 66.0767C103.774 64.6222 102.052 64.3656 100.331 63.9806C98.6093 63.5956 96.8877 63.125 96.8877 61.1572C96.8877 58.9755 98.8245 58.0344 100.761 58.0344C102.956 58.0344 104.635 59.0611 104.721 61.4139H103.387Z" fill="#009789"/>
<path d="M111.995 63.6811C111.78 62.6972 111.134 62.1411 110.058 62.1411C108.207 62.1411 107.648 63.5956 107.648 65.1783C107.648 66.59 108.293 68.0017 109.929 68.0017C111.177 68.0017 111.909 67.2745 112.081 66.1194H113.372C113.071 68.0017 111.909 69.1139 109.929 69.1139C107.562 69.1139 106.271 67.4883 106.271 65.1783C106.271 62.8683 107.476 61.0289 109.929 61.0289C111.693 61.0289 113.114 61.8417 113.286 63.6811H111.995Z" fill="#009789"/>
<path d="M116.17 59.8311H114.878V58.2911H116.17V59.8311ZM114.878 61.2428H116.17V68.9856H114.878V61.2428Z" fill="#009789"/>
<path d="M124.777 66.5044C124.433 68.2156 123.185 69.1139 121.463 69.1139C118.967 69.1139 117.805 67.4028 117.719 65.05C117.719 62.74 119.268 61.0289 121.377 61.0289C124.132 61.0289 124.949 63.5955 124.906 65.435H119.096C119.053 66.7611 119.828 67.9589 121.506 67.9589C122.539 67.9589 123.314 67.4456 123.529 66.4617H124.777V66.5044ZM123.529 64.3228C123.486 63.125 122.539 62.1411 121.291 62.1411C119.957 62.1411 119.139 63.125 119.053 64.3228H123.529Z" fill="#009789"/>
<path d="M126.198 61.2428H127.403V62.4833H127.446C128.005 61.5422 128.866 61.0717 129.985 61.0717C132.051 61.0717 132.654 62.2267 132.654 63.895V68.9856H131.362V63.7667C131.362 62.8256 130.76 62.2267 129.77 62.2267C128.221 62.2267 127.489 63.2533 127.489 64.665V69.0284H126.198V61.2428Z" fill="#009789"/>
<path d="M139.841 63.6811C139.626 62.6972 138.98 62.1411 137.904 62.1411C136.053 62.1411 135.494 63.5956 135.494 65.1783C135.494 66.59 136.14 68.0017 137.775 68.0017C139.023 68.0017 139.755 67.2745 139.927 66.1194H141.218C140.917 68.0017 139.755 69.1139 137.775 69.1139C135.408 69.1139 134.117 67.4883 134.117 65.1783C134.117 62.8683 135.322 61.0289 137.775 61.0289C139.54 61.0289 140.96 61.8417 141.132 63.6811H139.841Z" fill="#009789"/>
<path d="M149.266 66.5044C148.922 68.2156 147.674 69.1139 145.952 69.1139C143.456 69.1139 142.294 67.4028 142.208 65.05C142.208 62.74 143.757 61.0289 145.866 61.0289C148.621 61.0289 149.439 63.5955 149.396 65.435H143.585C143.542 66.7611 144.317 67.9589 145.995 67.9589C147.028 67.9589 147.803 67.4456 148.018 66.4617H149.266V66.5044ZM148.018 64.3228C147.975 63.125 147.028 62.1411 145.78 62.1411C144.446 62.1411 143.628 63.125 143.542 64.3228H148.018Z" fill="#009789"/>
<path d="M151.504 66.5044C151.548 67.6595 152.537 68.0017 153.613 68.0017C154.431 68.0017 155.507 67.8306 155.507 66.8467C155.507 65.8628 154.259 65.6917 152.968 65.3922C151.72 65.0928 150.429 64.7078 150.429 63.2105C150.429 61.6705 151.978 61.0289 153.312 61.0289C155.034 61.0289 156.411 61.585 156.497 63.4672H155.206C155.12 62.4833 154.259 62.1839 153.398 62.1839C152.624 62.1839 151.763 62.3978 151.763 63.1678C151.763 64.0661 153.097 64.2372 154.302 64.4939C155.593 64.7933 156.841 65.1783 156.841 66.6756C156.841 68.515 155.12 69.1139 153.527 69.1139C151.763 69.1139 150.299 68.4295 150.256 66.5044H151.504Z" fill="#009789"/>
</g>
<defs>
<clipPath id="clip0">
<rect width="155.802" height="68.4447" fill="white" transform="translate(0.996582 0.754761)"/>
</clipPath>
</defs>
</svg>
