<svg width="162" height="70" viewBox="0 0 162 70" fill="none" xmlns="http://www.w3.org/2000/svg">
<rect x="4" y="52" width="83" height="4" fill="#BD0E3A"/>
<path d="M31.4453 47H26.7334V30.5693H8.81348V47H4.12598V11.4531H8.81348V26.7363H26.7334V11.4531H31.4453V47ZM55.3711 47C55.1107 46.4792 54.8991 45.5514 54.7363 44.2168C52.6367 46.3978 50.1302 47.4883 47.2168 47.4883C44.6126 47.4883 42.4723 46.7559 40.7959 45.291C39.1357 43.8099 38.3057 41.9382 38.3057 39.6758C38.3057 36.9251 39.3473 34.793 41.4307 33.2793C43.5303 31.7493 46.4762 30.9844 50.2686 30.9844H54.6631V28.9092C54.6631 27.3304 54.1911 26.0771 53.2471 25.1494C52.3031 24.2054 50.9115 23.7334 49.0723 23.7334C47.4609 23.7334 46.11 24.1403 45.0195 24.9541C43.929 25.7679 43.3838 26.7526 43.3838 27.9082H38.8428C38.8428 26.5898 39.3066 25.3203 40.2344 24.0996C41.1784 22.8626 42.4479 21.8861 44.043 21.1699C45.6543 20.4538 47.4202 20.0957 49.3408 20.0957C52.3844 20.0957 54.7689 20.8607 56.4941 22.3906C58.2194 23.9043 59.1146 25.9958 59.1797 28.665V40.8232C59.1797 43.2484 59.4889 45.1771 60.1074 46.6094V47H55.3711ZM47.876 43.5576C49.292 43.5576 50.6348 43.1914 51.9043 42.459C53.1738 41.7266 54.0934 40.7744 54.6631 39.6025V34.1826H51.123C45.5892 34.1826 42.8223 35.8021 42.8223 39.041C42.8223 40.457 43.2943 41.5638 44.2383 42.3613C45.1823 43.1589 46.3949 43.5576 47.876 43.5576ZM76.8555 43.8018C78.4668 43.8018 79.8747 43.3135 81.0791 42.3369C82.2835 41.3604 82.9508 40.1396 83.0811 38.6748H87.3535C87.2721 40.1885 86.7513 41.6289 85.791 42.9961C84.8307 44.3633 83.5449 45.4538 81.9336 46.2676C80.3385 47.0814 78.6458 47.4883 76.8555 47.4883C73.2585 47.4883 70.3939 46.292 68.2617 43.8994C66.1458 41.4906 65.0879 38.2028 65.0879 34.0361V33.2793C65.0879 30.7077 65.5599 28.4209 66.5039 26.4189C67.4479 24.417 68.7988 22.8626 70.5566 21.7559C72.3307 20.6491 74.4222 20.0957 76.8311 20.0957C79.7933 20.0957 82.251 20.9827 84.2041 22.7568C86.1735 24.5309 87.2233 26.834 87.3535 29.666H83.0811C82.9508 27.957 82.2998 26.5573 81.1279 25.4668C79.9723 24.36 78.54 23.8066 76.8311 23.8066C74.5361 23.8066 72.7539 24.6367 71.4844 26.2969C70.2311 27.9408 69.6045 30.3252 69.6045 33.4502V34.3047C69.6045 37.3483 70.2311 39.6921 71.4844 41.3359C72.7376 42.9798 74.528 43.8018 76.8555 43.8018ZM99.8047 34.7686L96.9727 37.7227V47H92.4561V9.5H96.9727V32.1807L99.3896 29.2754L107.617 20.584H113.11L102.832 31.6191L114.307 47H109.009L99.8047 34.7686Z" fill="#888A8D"/>
<path d="M123.511 47H118.823V11.4531H123.511V47ZM152.173 37.7227H137.28L133.936 47H129.102L142.676 11.4531H146.777L160.376 47H155.566L152.173 37.7227ZM138.696 33.8652H150.781L144.727 17.2393L138.696 33.8652Z" fill="#BD0E3A"/>
<g clip-path="url(#clip0)">
<path d="M103.937 61.3044C103.937 64.8559 101.966 66.6824 98.6162 66.6824C95.0691 66.6824 93 65.0588 93 61.3044V52.375H94.7735V61.3044C94.7735 63.7397 96.1529 65.1603 98.5176 65.1603C100.784 65.1603 102.065 63.8412 102.065 61.3044V52.375H103.838V61.3044H103.937Z" fill="#888A8D"/>
<path d="M106.696 52.375H108.568L113.297 64.6529L118.027 52.375H119.899V66.3779H118.618V54.3029L113.987 66.3779H112.706L108.075 54.3029V66.3779H106.794V52.375H106.696Z" fill="#BD0E3A"/>
<path d="M128.274 52.0706C132.51 52.0706 134.678 55.5206 134.678 59.3765C134.678 63.2324 132.51 66.6824 128.274 66.6824C124.037 66.6824 121.869 63.2324 121.869 59.3765C121.869 55.5206 124.037 52.0706 128.274 52.0706ZM128.274 65.5662C131.821 65.5662 133.397 62.4206 133.397 59.3765C133.397 56.3324 131.919 53.1868 128.274 53.1868C124.628 53.1868 123.15 56.3324 123.15 59.3765C123.15 62.4206 124.628 65.5662 128.274 65.5662Z" fill="#BD0E3A"/>
<path d="M136.649 52.375H138.127L146.009 64.2471V52.375H147.29V66.3779H145.812L137.93 54.5059V66.3779H136.649V52.375Z" fill="#BD0E3A"/>
<path d="M150.64 61.7103C150.542 64.5515 152.611 65.4647 155.074 65.4647C156.453 65.4647 158.72 64.6529 158.72 62.6235C158.72 61 157.143 60.3912 155.961 60.0868L152.906 59.275C151.33 58.8691 149.852 58.0574 149.852 55.9265C149.852 54.5059 150.739 51.9691 154.581 51.9691C157.242 51.9691 159.606 53.4912 159.606 56.3324H158.325C158.227 54.2015 156.552 53.0853 154.581 53.0853C152.808 53.0853 151.133 53.7956 151.133 55.825C151.133 57.1441 152.118 57.6515 153.202 57.9559L156.552 58.7676C158.522 59.275 160.099 60.1882 160.099 62.4206C160.099 63.3338 159.705 66.3779 154.877 66.3779C151.625 66.3779 149.261 64.8559 149.458 61.5074H150.64V61.7103Z" fill="#BD0E3A"/>
<path d="M93 68.7118H103.937V69.9294H93V68.7118Z" fill="#BD0E3A"/>
</g>
<defs>
<clipPath id="clip0">
<rect width="67" height="18" fill="white" transform="translate(93 52)"/>
</clipPath>
</defs>
</svg>
