<svg width="40" height="40" viewBox="0 0 40 40" fill="none" xmlns="http://www.w3.org/2000/svg">
<g clip-path="url(#clip0)">
<path d="M23.5275 26.1567C23.5275 25.7906 23.2376 25.5665 22.8834 25.6586C22.8834 25.6586 21.2244 26.0897 20.0001 26.0897C18.7757 26.0897 17.1167 25.6586 17.1167 25.6586C16.7625 25.5665 16.4727 25.7906 16.4727 26.1567V28.0865C16.4727 28.4526 16.7722 28.752 17.1381 28.752H22.862C23.2281 28.752 23.5275 28.4524 23.5275 28.0865V26.1567Z" fill="white"/>
<path d="M30.1163 1.33118C30.1163 0.596094 29.5202 0 28.7851 0H11.2145C10.4794 0 9.8833 0.596094 9.8833 1.33118V12.3129C9.8833 15.7502 10.9057 18.8791 12.762 21.123C14.6305 23.3817 17.201 24.6257 19.9998 24.6257C22.7986 24.6257 25.3691 23.3818 27.2376 21.123C29.0939 18.8791 30.1163 15.7502 30.1163 12.3129V1.33118Z" fill="#00FFD1"/>
<path d="M8.61686 14.98C6.79531 14.3022 5.95652 12.7301 5.95652 10.1166V4.17089H8.41915V1.50867H4.62561C3.89039 1.50867 3.29443 2.10463 3.29443 2.83985V10.1165C3.29443 14.5557 5.42076 17.2598 9.33053 17.8914C9.00931 16.9677 8.76877 15.9931 8.61686 14.98Z" fill="white"/>
<path d="M11.2145 30.7488C10.4794 30.7488 9.8833 31.3447 9.8833 32.08V38.6689C9.8833 39.404 10.4794 40.0001 11.2145 40.0001H28.7853C29.5203 40.0001 30.1164 39.404 30.1164 38.6689V32.08C30.1164 31.3447 29.5203 30.7488 28.7853 30.7488H11.2145Z" fill="#00FFD1"/>
<path d="M35.374 1.50867H31.5803V4.17089H34.043V10.1165C34.043 12.7299 33.2042 14.3021 31.3826 14.9799C31.2307 15.993 30.9903 16.9677 30.6689 17.8914C34.5787 17.2598 36.705 14.5557 36.705 10.1165V2.83985C36.7052 2.10463 36.1092 1.50867 35.374 1.50867Z" fill="white"/>
</g>
<defs>
<clipPath id="clip0">
<rect width="40" height="40" fill="white"/>
</clipPath>
</defs>
</svg>
