<svg width="24" height="22" viewBox="0 0 24 22" fill="none" xmlns="http://www.w3.org/2000/svg">
<g clip-path="url(#clip0)">
<path d="M0.15332 19.8537V2.14633C0.15332 0.960953 1.18516 0 2.45799 0H15.9068C16.1693 0 16.3821 0.198172 16.3821 0.442664V19.1382L15.7856 19.8537H0.15332Z" fill="#BD0E3A"/>
<path d="M15.2772 0V6.47578C13.4938 7.4895 12.3003 9.31833 12.3003 11.4024C12.3003 12.3209 12.5334 13.2188 12.9785 14.0286L12.3594 15.7582C12.2214 16.1439 12.3292 16.569 12.6378 16.8564C12.8575 17.061 13.152 17.1708 13.4528 17.1708C13.5747 17.1708 13.6977 17.1527 13.8171 17.1157L15.2772 16.6624V17.7073H16.3815V0.442664C16.3815 0.198172 16.1687 0 15.9063 0L15.2772 0Z" fill="#B14343"/>
<path d="M16.3819 19.1381L15.7854 19.8536L16.3819 20.5688V21.5572C16.3819 21.8017 16.1691 21.9999 15.9066 21.9999H2.49597C1.23209 21.9999 0.174782 21.0671 0.153651 19.8902C0.132058 18.688 1.17161 17.707 2.45763 17.707H16.3819V19.1381Z" fill="#BD0E3A"/>
<path d="M16.3817 19.1382H2.45766C2.03406 19.1382 1.68945 19.4592 1.68945 19.8536C1.68945 20.2481 2.03411 20.569 2.45766 20.569H16.3818V19.1382H16.3817Z" fill="#F9F6F9"/>
<path d="M18.5672 6.70775C15.7869 6.6711 13.48 8.76664 13.4531 11.3561C13.4438 12.2552 13.7061 13.0966 14.168 13.8138C14.2103 13.8794 14.2182 13.9594 14.1922 14.0319L13.6032 15.6776C13.5413 15.8506 13.718 16.0152 13.9038 15.9575L15.6708 15.409C15.7487 15.3848 15.8346 15.3922 15.9051 15.4315C16.6751 15.8617 17.5786 16.106 18.5441 16.0973C21.3245 16.0723 23.5747 13.9239 23.5353 11.3346C23.4968 8.79534 21.2937 6.74367 18.5672 6.70775Z" fill="#B3E59F"/>
<path d="M22.423 8.45947C22.4644 8.72412 22.4862 8.99465 22.4862 9.26999C22.4862 12.3492 19.8059 14.8454 16.4995 14.8454C15.6355 14.8454 14.8144 14.6747 14.0726 14.368L13.6039 15.6775C13.542 15.8506 13.7187 16.0152 13.9045 15.9575L15.6716 15.4089C15.7495 15.3847 15.8354 15.3921 15.9058 15.4315C16.6757 15.8616 17.579 16.1059 18.5443 16.0973C21.3038 16.0727 23.5464 13.9554 23.5365 11.3853C23.5322 10.2776 23.1158 9.26045 22.423 8.45947Z" fill="#95D6A4"/>
<path d="M18.4943 9.56904C18.9185 9.56904 19.2625 9.24873 19.2625 8.85361C19.2625 8.45849 18.9185 8.13818 18.4943 8.13818C18.07 8.13818 17.7261 8.45849 17.7261 8.85361C17.7261 9.24873 18.07 9.56904 18.4943 9.56904Z" fill="#F9F6F9"/>
<path d="M18.4943 14.6667C18.07 14.6667 17.7261 14.3463 17.7261 13.9512V11.7154C17.7261 11.3203 18.07 11 18.4943 11C18.9186 11 19.2625 11.3203 19.2625 11.7154V13.9512C19.2625 14.3464 18.9186 14.6667 18.4943 14.6667Z" fill="#F9F6F9"/>
<path d="M13.741 1.99316H4.1382C3.94133 1.99316 3.78174 2.14179 3.78174 2.32514V6.79668C3.78174 6.98007 3.94133 7.12866 4.1382 7.12866H13.741C13.9379 7.12866 14.0975 6.98003 14.0975 6.79668V2.32518C14.0975 2.14179 13.9379 1.99316 13.741 1.99316Z" fill="#F9F6F9"/>
<path d="M7.01901 14.9987H4.1382C3.94133 14.9987 3.78174 14.85 3.78174 14.6667C3.78174 14.4833 3.94133 14.3347 4.1382 14.3347H7.01905C7.21592 14.3347 7.37552 14.4833 7.37552 14.6667C7.37552 14.85 7.21592 14.9987 7.01901 14.9987Z" fill="#FFE07D"/>
<path d="M7.01901 16.4296H4.1382C3.94133 16.4296 3.78174 16.281 3.78174 16.0976C3.78174 15.9142 3.94133 15.7656 4.1382 15.7656H7.01905C7.21592 15.7656 7.37552 15.9143 7.37552 16.0976C7.37552 16.281 7.21592 16.4296 7.01901 16.4296Z" fill="#E7A52E"/>
</g>
<defs>
<clipPath id="clip0">
<rect width="23.623" height="22" fill="white" transform="translate(0.0327148)"/>
</clipPath>
</defs>
</svg>
