<svg width="39" height="39" viewBox="0 0 39 39" fill="none" xmlns="http://www.w3.org/2000/svg">
<path d="M34.5454 0H3.45457C1.54928 0 0 1.53763 0 3.42858V8.57142C0 10.4623 1.54928 12 3.45457 12H34.5454C36.4506 12 38 10.4624 38 8.57142V3.42858C37.9999 1.53763 36.4506 0 34.5454 0ZM6.90905 7.71425C6.90905 8.18804 6.52277 8.57142 6.04539 8.57142C5.56802 8.57142 5.18181 8.18804 5.18181 7.71425V4.28567C5.18181 3.81188 5.5681 3.4285 6.04547 3.4285C6.52285 3.4285 6.90913 3.81188 6.90913 4.28567V7.71425H6.90905ZM10.3636 7.71425C10.3636 8.18804 9.97733 8.57142 9.49996 8.57142C9.02258 8.57142 8.6363 8.18804 8.6363 7.71425V4.28567C8.6363 3.81188 9.02258 3.4285 9.49996 3.4285C9.97733 3.4285 10.3636 3.81188 10.3636 4.28567V7.71425ZM13.8182 7.71425C13.8182 8.18804 13.4319 8.57142 12.9545 8.57142C12.4772 8.57142 12.0909 8.18804 12.0909 7.71425V4.28567C12.0909 3.81188 12.4772 3.4285 12.9545 3.4285C13.4319 3.4285 13.8182 3.81188 13.8182 4.28567V7.71425ZM25.9091 7.71425C24.9569 7.71425 24.1818 6.945 24.1818 6C24.1818 5.055 24.9569 4.28567 25.9091 4.28567C26.8612 4.28567 27.6363 5.05492 27.6363 5.99992C27.6363 6.94492 26.8612 7.71425 25.9091 7.71425ZM31.0909 7.71425C30.1387 7.71425 29.3636 6.945 29.3636 6C29.3636 5.055 30.1387 4.28567 31.0909 4.28567C32.043 4.28567 32.8181 5.05492 32.8181 5.99992C32.8181 6.94492 32.043 7.71425 31.0909 7.71425Z" fill="#00FFD1"/>
<path d="M34.5454 14H3.45457C1.54928 14 0 15.4095 0 17.1429V21.8571C0 23.5904 1.54928 25 3.45457 25H34.5454C36.4506 25 38 23.5905 38 21.8571V17.1429C37.9999 15.4095 36.4506 14 34.5454 14ZM6.90905 21.0714C6.90905 21.5057 6.52277 21.8571 6.04539 21.8571C5.56802 21.8571 5.18181 21.5057 5.18181 21.0714V17.9285C5.18181 17.4942 5.5681 17.1428 6.04547 17.1428C6.52285 17.1428 6.90913 17.4942 6.90913 17.9285V21.0714H6.90905ZM10.3636 21.0714C10.3636 21.5057 9.97733 21.8571 9.49996 21.8571C9.02258 21.8571 8.6363 21.5057 8.6363 21.0714V17.9285C8.6363 17.4942 9.02258 17.1428 9.49996 17.1428C9.97733 17.1428 10.3636 17.4942 10.3636 17.9285V21.0714ZM13.8182 21.0714C13.8182 21.5057 13.4319 21.8571 12.9545 21.8571C12.4772 21.8571 12.0909 21.5057 12.0909 21.0714V17.9285C12.0909 17.4942 12.4772 17.1428 12.9545 17.1428C13.4319 17.1428 13.8182 17.4942 13.8182 17.9285V21.0714ZM25.9091 21.0714C24.9569 21.0714 24.1818 20.3662 24.1818 19.5C24.1818 18.6338 24.9569 17.9286 25.9091 17.9286C26.8612 17.9286 27.6363 18.6338 27.6363 19.5C27.6363 20.3662 26.8612 21.0714 25.9091 21.0714ZM31.0909 21.0714C30.1387 21.0714 29.3636 20.3662 29.3636 19.5C29.3636 18.6338 30.1387 17.9286 31.0909 17.9286C32.043 17.9286 32.8181 18.6338 32.8181 19.5C32.8181 20.3662 32.043 21.0714 31.0909 21.0714Z" fill="white"/>
<path d="M34.5454 27H3.45457C1.54928 27 0 28.5376 0 30.4286V35.5714C0 37.4623 1.54928 39 3.45457 39H34.5454C36.4506 39 38 37.4624 38 35.5714V30.4286C37.9999 28.5376 36.4506 27 34.5454 27ZM6.90905 34.7143C6.90905 35.188 6.52277 35.5714 6.04539 35.5714C5.56802 35.5714 5.18181 35.188 5.18181 34.7143V31.2857C5.18181 30.8119 5.5681 30.4285 6.04547 30.4285C6.52285 30.4285 6.90913 30.8119 6.90913 31.2857V34.7143H6.90905ZM10.3636 34.7143C10.3636 35.188 9.97733 35.5714 9.49996 35.5714C9.02258 35.5714 8.6363 35.188 8.6363 34.7143V31.2857C8.6363 30.8119 9.02258 30.4285 9.49996 30.4285C9.97733 30.4285 10.3636 30.8119 10.3636 31.2857V34.7143ZM13.8182 34.7143C13.8182 35.188 13.4319 35.5714 12.9545 35.5714C12.4772 35.5714 12.0909 35.188 12.0909 34.7143V31.2857C12.0909 30.8119 12.4772 30.4285 12.9545 30.4285C13.4319 30.4285 13.8182 30.8119 13.8182 31.2857V34.7143ZM25.9091 34.7143C24.9569 34.7143 24.1818 33.945 24.1818 33C24.1818 32.055 24.9569 31.2857 25.9091 31.2857C26.8612 31.2857 27.6363 32.055 27.6363 33C27.6363 33.945 26.8612 34.7143 25.9091 34.7143ZM31.0909 34.7143C30.1387 34.7143 29.3636 33.945 29.3636 33C29.3636 32.055 30.1387 31.2857 31.0909 31.2857C32.043 31.2857 32.8181 32.055 32.8181 33C32.8181 33.945 32.043 34.7143 31.0909 34.7143Z" fill="#00FFD1"/>
</svg>
