<svg width="33" height="33" viewBox="0 0 33 33" fill="none" xmlns="http://www.w3.org/2000/svg">
<g clip-path="url(#clip0_9_1533)">
<path d="M31.0604 21.8753C27.0771 30.2285 20.9476 32.0332 16.5004 32.0332C11.4923 32.0332 6.77433 29.5324 3.87394 25.4525C0.954344 21.334 0.258121 16.1133 1.94035 11.1245L2.24979 10.4865C4.60871 4.8597 10.3322 0.966797 16.5004 0.966797C21.5084 0.966797 26.2264 3.46758 29.1268 7.54746C32.0464 11.666 32.7426 16.8867 31.0604 21.8753Z" fill="#BD0E3A"/>
<path d="M31.06 21.8753C27.0767 30.2285 20.9473 32.0332 16.5 32.0332V0.966797C21.5081 0.966797 26.226 3.46758 29.1264 7.54746C32.046 11.666 32.7423 16.8867 31.06 21.8753Z" fill="#BD0E3A"/>
<path d="M29.9194 6.98665C26.8257 2.6554 21.8176 0 16.5002 0C9.86799 0 3.79651 4.16367 1.30217 10.2931L0.973395 10.9699C-0.801966 16.376 -0.110706 21.4966 3.08108 26.0132C6.17476 30.3445 11.1828 33 16.5002 33C23.0551 33 29.0492 28.933 31.6209 22.9388L31.9109 22.3587C33.8436 16.8596 33.1666 11.5769 29.9194 6.98665ZM4.66662 24.8917C1.92099 21.0245 1.28283 16.1326 2.86838 11.434L3.11975 10.9118C4.68596 7.16068 7.79905 4.25391 11.5115 2.86165C9.1719 5.9168 7.76031 11.8593 7.9344 13.7929C7.91506 13.851 7.89566 13.9089 7.89566 13.9863C7.39293 20.4638 8.86246 26.7158 11.6275 30.2156C8.86252 29.2101 6.40692 27.3475 4.66662 24.8917ZM15.5334 30.8923C14.8567 30.6603 14.1799 30.1512 13.5418 29.4743C10.8348 26.5547 9.34592 20.3865 9.82932 14.141V13.967C9.82932 13.9089 9.84866 13.8316 9.84866 13.7736C10.4093 7.76009 12.7684 3.01641 15.5334 2.10755V30.8923ZM17.467 30.873V2.10755C20.4447 3.09369 22.9391 8.5722 23.2291 15.1077C23.4998 21.1406 21.9916 26.806 19.3812 29.5518C18.7625 30.1898 18.1245 30.6603 17.467 30.873ZM30.1321 21.566C27.9664 26.1293 24.9114 28.9394 21.3729 30.1963C23.9639 26.9285 25.4334 21.102 25.1627 15.0305C24.9306 9.88704 23.4804 5.4528 21.3729 2.78437C24.1379 3.78978 26.5935 5.65254 28.3337 8.10814C31.0794 11.9753 31.7176 16.8674 30.1321 21.566Z" fill="white"/>
<path d="M29.9191 6.98665C26.8255 2.6554 21.8174 0 16.5 0V33C23.0549 33 29.049 28.933 31.6207 22.9388L31.9107 22.3587C33.8434 16.8596 33.1664 11.5769 29.9191 6.98665ZM17.4668 30.873V2.10755C20.4445 3.09369 22.9389 8.5722 23.2288 15.1077C23.4995 21.1406 21.9914 26.806 19.381 29.5518C18.7622 30.1898 18.1243 30.6603 17.4668 30.873ZM30.1318 21.566C27.9662 26.1293 24.9111 28.9394 21.3727 30.1963C23.9637 26.9285 25.4332 21.102 25.1624 15.0305C24.9304 9.88704 23.4802 5.4528 21.3727 2.78437C24.1377 3.78978 26.5933 5.65254 28.3335 8.10814C31.0792 11.9753 31.7174 16.8674 30.1318 21.566Z" fill="white"/>
<path d="M30.0352 9.73242H2.96484C1.3599 9.73242 0 11.0279 0 12.6328V20.3672C0 21.972 1.3599 23.2676 2.96484 23.2676H30.0352C31.6401 23.2676 33 21.972 33 20.3672V12.6328C33 11.0279 31.6401 9.73242 30.0352 9.73242Z" fill="white"/>
<path d="M33 12.6328V20.3672C33 21.972 31.6401 23.2676 30.0352 23.2676H16.5V9.73242H30.0352C31.6401 9.73242 33 11.0279 33 12.6328Z" fill="white"/>
<path d="M21.2366 14.9917L19.303 18.8589C19.129 19.1877 18.8003 19.4004 18.4329 19.4004C18.0655 19.4004 17.7368 19.1877 17.5628 18.8589L16.4993 16.732L15.4358 18.8589C15.1072 19.5164 14.0242 19.5164 13.6955 18.8589L11.7619 14.9917C11.5299 14.5276 11.7233 13.9476 12.2067 13.6963C12.6708 13.4642 13.2508 13.6575 13.5021 14.1409L14.5657 16.2679L15.6292 14.1409C15.8033 13.8123 16.1513 13.6382 16.4993 13.6382C16.8473 13.6382 17.1954 13.8123 17.3694 14.1409L18.4329 16.2679L19.4964 14.1409C19.7477 13.6575 20.3278 13.4642 20.7918 13.6963C21.2752 13.9476 21.4686 14.5276 21.2366 14.9917Z" fill="#BD0E3A"/>
<path d="M28.1018 19.4004C27.7354 19.4004 27.4013 19.1937 27.237 18.866L26.1682 16.7285L25.0994 18.866C24.7709 19.5213 23.6984 19.5213 23.3698 18.866L21.5174 15.1603C21.3975 15.013 21.32 14.8308 21.3068 14.6306C21.2729 14.0981 21.6476 13.6402 22.1801 13.6053C22.5842 13.5959 22.9921 13.7866 23.1658 14.134L24.2346 16.2715L25.3034 14.134C25.632 13.4788 26.7045 13.4788 27.033 14.134L28.1018 16.2715L29.1706 14.134C29.4104 13.6553 29.991 13.4656 30.4678 13.7016C30.9455 13.9405 31.1391 14.5211 30.9002 14.9988L28.9666 18.866C28.8023 19.1937 28.4681 19.4004 28.1018 19.4004Z" fill="#BD0E3A"/>
<path d="M10.7619 13.6015C10.3814 13.5977 10.0085 13.7865 9.83475 14.134L8.76599 16.2715L7.69723 14.134C7.34899 13.4399 6.312 13.4451 5.96756 14.134L4.8988 16.2715L3.83004 14.134C3.59021 13.6553 3.00865 13.4656 2.53279 13.7016C2.05506 13.9405 1.86151 14.5211 2.10038 14.9988L4.03397 18.866C4.19826 19.1937 4.53245 19.4004 4.8988 19.4004C5.26515 19.4004 5.59934 19.1937 5.76363 18.866L6.83239 16.7285L7.90116 18.866C8.06545 19.1937 8.39964 19.4004 8.76599 19.4004C9.13234 19.4004 9.46653 19.1937 9.63082 18.866L11.4521 15.2235C11.5899 15.0668 11.6787 14.86 11.6938 14.6306C11.7277 14.0981 11.2944 13.6364 10.7619 13.6015Z" fill="#BD0E3A"/>
<path d="M21.2373 14.9917L19.3037 18.8589C19.1297 19.1877 18.801 19.4004 18.4336 19.4004C18.0662 19.4004 17.7375 19.1877 17.5635 18.8589L16.5 16.732V13.6382C16.848 13.6382 17.1961 13.8123 17.3701 14.1409L18.4336 16.2679L19.4971 14.1409C19.7484 13.6575 20.3285 13.4642 20.7925 13.6963C21.2759 13.9476 21.4693 14.5276 21.2373 14.9917Z" fill="#BD0E3A"/>
</g>
<defs>
<clipPath id="clip0_9_1533">
<rect width="33" height="33" fill="white"/>
</clipPath>
</defs>
</svg>
