<svg width="33" height="33" viewBox="0 0 33 33" fill="none" xmlns="http://www.w3.org/2000/svg">
<path d="M31.06 21.8753C27.0767 30.2285 20.9473 32.0332 16.5 32.0332C11.4919 32.0332 6.77397 29.5324 3.87358 25.4525C0.953978 21.334 0.257755 16.1133 1.93998 11.1245L2.24942 10.4865C4.60834 4.8597 10.3318 0.966797 16.5 0.966797C21.5081 0.966797 26.2261 3.46758 29.1264 7.54746C32.046 11.666 32.7423 16.8867 31.06 21.8753Z" fill="#65B1FC"/>
<path d="M31.06 21.8753C27.0767 30.2285 20.9473 32.0332 16.5 32.0332V0.966797C21.5081 0.966797 26.226 3.46758 29.1264 7.54746C32.046 11.666 32.7423 16.8867 31.06 21.8753Z" fill="#1689FC"/>
<path d="M29.9195 6.98665C26.8258 2.6554 21.8177 0 16.5003 0C9.86811 0 3.79663 4.16367 1.30229 10.2931L0.973517 10.9699C-0.801844 16.376 -0.110584 21.4966 3.0812 26.0132C6.17488 30.3445 11.183 33 16.5003 33C23.0552 33 29.0494 28.933 31.621 22.9388L31.911 22.3587C33.8437 16.8596 33.1667 11.5769 29.9195 6.98665ZM4.66675 24.8917C1.92111 21.0245 1.28296 16.1326 2.8685 11.434L3.11987 10.9118C4.68608 7.16068 7.79917 4.25391 11.5116 2.86165C9.17202 5.9168 7.76043 11.8593 7.93452 13.7929C7.91518 13.851 7.89578 13.9089 7.89578 13.9863C7.39305 20.4638 8.86258 26.7158 11.6276 30.2156C8.86265 29.2101 6.40704 27.3475 4.66675 24.8917ZM15.5335 30.8923C14.8568 30.6603 14.18 30.1512 13.5419 29.4743C10.8349 26.5547 9.34604 20.3865 9.82944 14.141V13.967C9.82944 13.9089 9.84878 13.8316 9.84878 13.7736C10.4095 7.76009 12.7685 3.01641 15.5335 2.10755V30.8923ZM17.4671 30.873V2.10755C20.4448 3.09369 22.9393 8.5722 23.2292 15.1077C23.4999 21.1406 21.9917 26.806 19.3813 29.5518C18.7626 30.1898 18.1246 30.6603 17.4671 30.873ZM30.1322 21.566C27.9666 26.1293 24.9115 28.9394 21.3731 30.1963C23.964 26.9285 25.4335 21.102 25.1628 15.0305C24.9307 9.88704 23.4805 5.4528 21.373 2.78437C24.138 3.78978 26.5936 5.65254 28.3339 8.10814C31.0796 11.9753 31.7177 16.8674 30.1322 21.566Z" fill="#96EBE6"/>
<path d="M29.9191 6.98665C26.8255 2.6554 21.8174 0 16.5 0V33C23.0549 33 29.049 28.933 31.6207 22.9388L31.9107 22.3587C33.8434 16.8596 33.1664 11.5769 29.9191 6.98665ZM17.4668 30.873V2.10755C20.4445 3.09369 22.9389 8.5722 23.2288 15.1077C23.4995 21.1406 21.9914 26.806 19.381 29.5518C18.7622 30.1898 18.1243 30.6603 17.4668 30.873ZM30.1318 21.566C27.9662 26.1293 24.9111 28.9394 21.3727 30.1963C23.9637 26.9285 25.4332 21.102 25.1624 15.0305C24.9304 9.88704 23.4802 5.4528 21.3727 2.78437C24.1377 3.78978 26.5933 5.65254 28.3335 8.10814C31.0792 11.9753 31.7174 16.8674 30.1318 21.566Z" fill="#00C8C8"/>
<path d="M30.0352 9.73242H2.96484C1.3599 9.73242 0 11.0279 0 12.6328V20.3672C0 21.972 1.3599 23.2676 2.96484 23.2676H30.0352C31.6401 23.2676 33 21.972 33 20.3672V12.6328C33 11.0279 31.6401 9.73242 30.0352 9.73242Z" fill="#0053BF"/>
<path d="M33 12.6328V20.3672C33 21.972 31.6401 23.2676 30.0352 23.2676H16.5V9.73242H30.0352C31.6401 9.73242 33 11.0279 33 12.6328Z" fill="#05377F"/>
<path d="M21.2373 14.9917L19.3037 18.8589C19.1297 19.1877 18.801 19.4004 18.4336 19.4004C18.0662 19.4004 17.7375 19.1877 17.5635 18.8589L16.5 16.732L15.4365 18.8589C15.1079 19.5164 14.025 19.5164 13.6962 18.8589L11.7626 14.9917C11.5306 14.5276 11.724 13.9476 12.2074 13.6963C12.6715 13.4642 13.2515 13.6575 13.5029 14.1409L14.5664 16.2679L15.6299 14.1409C15.804 13.8123 16.152 13.6382 16.5 13.6382C16.848 13.6382 17.1961 13.8123 17.3701 14.1409L18.4336 16.2679L19.4971 14.1409C19.7485 13.6575 20.3285 13.4642 20.7925 13.6963C21.2759 13.9476 21.4694 14.5276 21.2373 14.9917Z" fill="#E1F1FA"/>
<path d="M28.1016 19.4004C27.7352 19.4004 27.401 19.1936 27.2367 18.866L26.168 16.7285L25.0992 18.866C24.7706 19.5212 23.6981 19.5212 23.3696 18.866L21.5172 15.1603C21.3973 15.013 21.3198 14.8308 21.3066 14.6306C21.2726 14.0981 21.6474 13.6402 22.1799 13.6053C22.584 13.5959 22.9919 13.7866 23.1656 14.134L24.2344 16.2715L25.3032 14.134C25.6317 13.4788 26.7042 13.4788 27.0328 14.134L28.1016 16.2715L29.1703 14.134C29.4102 13.6553 29.9908 13.4655 30.4676 13.7016C30.9453 13.9404 31.1389 14.5211 30.9 14.9988L28.9664 18.866C28.8021 19.1936 28.4679 19.4004 28.1016 19.4004Z" fill="#BFE1FF"/>
<path d="M10.7615 13.6015C10.3811 13.5977 10.0081 13.7865 9.83438 14.134L8.76562 16.2715L7.69686 14.134C7.34862 13.4399 6.31163 13.4451 5.9672 14.134L4.89843 16.2715L3.82967 14.134C3.58984 13.6553 3.00828 13.4655 2.53243 13.7016C2.0547 13.9404 1.86115 14.5211 2.10001 14.9988L4.0336 18.866C4.19789 19.1936 4.53208 19.4004 4.89843 19.4004C5.26479 19.4004 5.59898 19.1936 5.76327 18.866L6.83203 16.7285L7.90079 18.866C8.06508 19.1936 8.39927 19.4004 8.76562 19.4004C9.13197 19.4004 9.46616 19.1936 9.63045 18.866L11.4517 15.2235C11.5896 15.0668 11.6783 14.86 11.6934 14.6306C11.7274 14.0981 11.2941 13.6364 10.7615 13.6015Z" fill="#E1F1FA"/>
<path d="M21.2373 14.9917L19.3037 18.8589C19.1297 19.1877 18.801 19.4004 18.4336 19.4004C18.0662 19.4004 17.7375 19.1877 17.5635 18.8589L16.5 16.732V13.6382C16.848 13.6382 17.1961 13.8123 17.3701 14.1409L18.4336 16.2679L19.4971 14.1409C19.7484 13.6575 20.3285 13.4642 20.7925 13.6963C21.2759 13.9476 21.4693 14.5276 21.2373 14.9917Z" fill="#BFE1FF"/>
</svg>
