<svg width="32" height="32" viewBox="0 0 32 32" fill="none" xmlns="http://www.w3.org/2000/svg">
<g clip-path="url(#clip0)">
<path d="M14.2715 18.7185L19.3996 15.7649L14.2715 12.8114V18.7185Z" fill="#ACACAC"/>
<path d="M16.2352 0C7.52976 0 0.470215 7.05954 0.470215 15.765C0.470215 24.4704 7.52976 31.5299 16.2352 31.5299C24.9406 31.5299 32.0001 24.4704 32.0001 15.765C32.0001 7.05954 24.9406 0 16.2352 0ZM26.0859 15.7811C26.0859 15.7811 26.0859 18.9783 25.6803 20.52C25.453 21.3639 24.7876 22.0292 23.9437 22.2563C22.402 22.6621 16.2352 22.6621 16.2352 22.6621C16.2352 22.6621 10.0844 22.6621 8.52661 22.2402C7.68275 22.0131 7.01738 21.3475 6.79005 20.5036C6.38424 18.9783 6.38424 15.765 6.38424 15.765C6.38424 15.765 6.38424 12.568 6.79005 11.0263C7.01714 10.1824 7.69887 9.50069 8.52661 9.2736C10.0683 8.86779 16.2352 8.86779 16.2352 8.86779C16.2352 8.86779 22.402 8.86779 23.9437 9.28972C24.7876 9.5168 25.453 10.1824 25.6803 11.0263C26.1022 12.568 26.0859 15.7811 26.0859 15.7811Z" fill="#ACACAC"/>
</g>
<defs>
<clipPath id="clip0">
<rect width="31.5299" height="31.5299" fill="white" transform="translate(0.470215)"/>
</clipPath>
</defs>
</svg>
