<svg width="512" height="336" viewBox="0 0 512 336" fill="none" xmlns="http://www.w3.org/2000/svg">
<path d="M473.7 335.4H38.3C17.2 335.4 0 318.3 0 297.1V38.3C0 17.1 17.2 0 38.3 0H473.6C494.8 0 511.9 17.2 511.9 38.3V297.1C512 318.3 494.8 335.4 473.7 335.4Z" fill="#FFE15A"/>
<path d="M38.3 0C17.2 0 0 17.1 0 38.3V297.1C0 318.3 17.2 335.4 38.3 335.4H170.6V0H38.3Z" fill="#464655"/>
<path d="M473.7 0H341.3V335.4H473.6C494.8 335.4 511.9 318.2 511.9 297.1V38.3C512 17.1 494.8 0 473.7 0Z" fill="#FF4B55"/>
<path d="M5.5 317C12.066 328.7 24.0905 335.964 38.4622 335.964L170.784 335.384V222.562L5.5 317Z" fill="#41479B"/>
<path d="M170.787 222.56V335.399H341.457V126L170.787 222.56Z" fill="#F5F5F5"/>
</svg>
