<svg width="40" height="40" viewBox="0 0 40 40" fill="none" xmlns="http://www.w3.org/2000/svg">
<path fill-rule="evenodd" clip-rule="evenodd" d="M5.44629 3.60754H34.5536C37.1219 3.60754 39.204 5.68951 39.204 8.25794V35.3496C39.204 37.9179 37.1219 40 34.5536 40H5.44629C2.878 40 0.795898 37.9179 0.795898 35.3496V8.25794C0.795898 5.68965 2.878 3.60754 5.44629 3.60754ZM18.4779 19.8215H14.9676V23.3318H18.4779V19.8215ZM25.0323 19.8215H21.522V23.3318H25.0323V19.8215ZM28.0764 19.8215H31.5867V23.3318H28.0764V19.8215ZM11.9235 25.3244H8.41316V28.8347H11.9235V25.3244ZM14.9676 25.3244H18.4779V28.8347H14.9676V25.3244ZM25.0323 25.3244H21.522V28.8347H25.0323V25.3244ZM28.0764 25.3244H31.5867V28.8347H28.0764V25.3244ZM11.9235 30.8274H8.41316V34.3377H11.9235V30.8274ZM14.9676 30.8274H18.4779V34.3377H14.9676V30.8274ZM25.0323 30.8274H21.522V34.3377H25.0323V30.8274Z" fill="white"/>
<path d="M39.204 13.3964V8.25794C39.204 5.68965 37.1219 3.60754 34.5536 3.60754H5.44629C2.878 3.60754 0.795898 5.68965 0.795898 8.25794V13.3964H39.204Z" fill="#00FFD1"/>
</svg>
