<svg width="32" height="32" viewBox="0 0 32 32" fill="none" xmlns="http://www.w3.org/2000/svg">
<g clip-path="url(#clip0)">
<path d="M31.5299 15.765C31.5299 7.05728 24.4726 0 15.765 0C7.05728 0 0 7.05728 0 15.765C0 24.4726 7.05728 31.5299 15.765 31.5299C15.8573 31.5299 15.9497 31.5299 16.0421 31.5238V19.2566H12.6551V15.3093H16.0421V12.4026C16.0421 9.03406 18.0989 7.19892 21.1041 7.19892C22.5451 7.19892 23.7829 7.30361 24.1401 7.35287V10.8754H22.0709C20.439 10.8754 20.1188 11.6513 20.1188 12.7906V15.3031H24.0292L23.5181 19.2505H20.1188V30.9203C26.7081 29.0297 31.5299 22.9639 31.5299 15.765Z" fill="#ACACAC"/>
</g>
<defs>
<clipPath id="clip0">
<rect width="31.5299" height="31.5299" fill="white"/>
</clipPath>
</defs>
</svg>
