<svg width="196" height="37" viewBox="0 0 196 37" fill="none" xmlns="http://www.w3.org/2000/svg">
<g clip-path="url(#clip0)">
<path d="M14.0523 35.4323H3.35541V33.9489C3.70961 33.9489 4.06382 33.8783 4.41802 33.8783C4.77222 33.8783 5.12642 33.8077 5.33894 33.6664C5.76398 33.5251 6.04734 33.3132 6.25986 32.9601C6.47238 32.6069 6.54322 32.1831 6.54322 31.618V18.1268C6.54322 17.6324 6.40154 17.2086 6.18902 16.7848C5.9765 16.361 5.69314 16.0784 5.2681 15.7959C4.98474 15.584 4.5597 15.4427 4.06382 15.3721C3.56793 15.3015 3.00121 15.1602 2.57617 15.1602V13.6769L10.3686 13.1824L10.652 13.465V31.4767C10.652 31.9712 10.7228 32.4656 10.9353 32.7482C11.1478 33.1013 11.4312 33.3132 11.8562 33.5251C12.2104 33.6664 12.4938 33.737 12.848 33.8783C13.1314 33.9489 13.4856 34.0196 13.9106 34.0196V35.4323H14.0523ZM11.2187 4.42376C11.2187 5.27138 10.9353 6.04836 10.3686 6.68407C9.80187 7.31978 9.09347 7.60231 8.31423 7.60231C7.53498 7.60231 6.89742 7.31978 6.3307 6.68407C5.76398 6.11899 5.48062 5.41265 5.48062 4.63567C5.48062 3.78806 5.76398 3.08171 6.3307 2.51664C6.89742 1.95156 7.53498 1.59839 8.31423 1.59839C9.16431 1.59839 9.87271 1.88093 10.4394 2.446C10.9353 3.01108 11.2187 3.64679 11.2187 4.42376Z" fill="#3461AB"/>
<path d="M40.6173 35.4323H29.7788V33.9489C30.133 33.9489 30.4872 33.8783 30.9122 33.8783C31.3372 33.8783 31.6914 33.8077 31.904 33.6664C32.329 33.5251 32.6124 33.3132 32.8249 32.9601C33.0374 32.6069 33.1082 32.1831 33.1082 31.618V20.3871C33.1082 18.8332 32.754 17.6324 31.9748 16.7848C31.2664 15.9372 30.3455 15.5133 29.2829 15.5133C28.5036 15.5133 27.7952 15.6546 27.0868 15.8665C26.4493 16.0784 25.8117 16.4316 25.3158 16.7848C24.8199 17.1379 24.3949 17.4911 24.1115 17.9149C23.8282 18.3387 23.6157 18.6213 23.474 18.8332V31.5474C23.474 32.0418 23.5448 32.4656 23.7573 32.8188C23.9699 33.172 24.2532 33.3839 24.6783 33.5958C24.9616 33.737 25.3158 33.8783 25.67 33.9489C26.0242 34.0196 26.4493 34.0902 26.8035 34.0902V35.5735H16.1774V34.0902C16.5316 34.0902 16.8858 34.0196 17.24 34.0196C17.5942 34.0196 17.9484 33.9489 18.161 33.8077C18.586 33.6664 18.8694 33.4545 19.0819 33.1013C19.2944 32.7481 19.3653 32.3243 19.3653 31.7593V18.1268C19.3653 17.6324 19.2236 17.1379 19.0111 16.7141C18.7985 16.2903 18.5152 15.9372 18.0901 15.6546C17.8068 15.4427 17.4526 15.3721 17.0984 15.2308C16.7442 15.1602 16.3191 15.0895 15.8232 15.0895V13.6062L23.1906 13.1118L23.474 13.3943V16.5022H23.6157C23.9699 16.1491 24.3949 15.7253 24.9616 15.2308C25.5283 14.7364 26.0242 14.3126 26.5201 14.03C27.0868 13.6769 27.7244 13.3943 28.5036 13.1118C29.2829 12.8999 30.133 12.7586 31.0539 12.7586C33.1791 12.7586 34.7376 13.3943 35.8002 14.7364C36.7919 16.0784 37.3587 17.8443 37.3587 20.034V31.5474C37.3587 32.0418 37.4295 32.4656 37.642 32.8188C37.8545 33.172 38.1379 33.3839 38.5629 33.5958C38.9171 33.737 39.2005 33.8783 39.4839 33.8783C39.7672 33.9489 40.1214 33.9489 40.5465 34.0196V35.4323H40.6173Z" fill="#1D1D1B"/>
<path d="M59.1773 3.5055C59.1773 4.21185 58.9648 4.77692 58.6106 5.20073C58.2564 5.69517 57.6896 5.90707 56.9812 5.90707C56.4854 5.90707 56.1312 5.83644 55.777 5.62453C55.4228 5.41263 55.0686 5.20073 54.7852 4.84756C54.5018 4.49438 54.2185 4.14121 53.9351 3.7174C53.6518 3.2936 53.4392 2.94043 53.2976 2.72852C52.3058 2.79916 51.5266 3.43487 50.9598 4.84756C50.3931 6.18961 50.1097 8.30864 50.1097 11.2753V13.5356H55.777V15.6546H50.1097V31.4767C50.1097 31.9712 50.1806 32.395 50.3931 32.7481C50.6056 33.1013 50.889 33.3132 51.314 33.4545C51.6682 33.5958 52.1641 33.6664 52.7308 33.8077C53.2976 33.8783 53.8643 33.9489 54.2893 33.9489V35.4323H42.7424V33.9489C43.0966 33.9489 43.4508 33.8783 43.805 33.8783C44.1592 33.8783 44.5134 33.8077 44.7259 33.6664C45.1509 33.5251 45.4343 33.3132 45.6468 32.96C45.8593 32.6069 45.9302 32.1831 45.9302 31.618V15.6546H41.5381V13.5356H45.9302V12.1229C45.9302 8.80308 46.7803 6.04834 48.5513 3.99994C50.3223 1.95154 52.4475 0.892029 55.0686 0.892029C56.4145 0.892029 57.4063 1.17457 58.0438 1.66901C58.8939 2.09281 59.1773 2.72852 59.1773 3.5055Z" fill="#1D1D1B"/>
<path d="M78.6585 24.2014C78.6585 25.7554 78.446 27.3093 77.9501 28.7926C77.4543 30.276 76.7459 31.5474 75.8249 32.6069C74.7623 33.8077 73.558 34.6553 72.2121 35.291C70.8661 35.8561 69.3076 36.1386 67.6075 36.1386C66.1907 36.1386 64.8447 35.8561 63.5696 35.3616C62.2945 34.8672 61.161 34.0902 60.1693 33.0307C59.1775 32.0418 58.3982 30.841 57.8315 29.3577C57.2648 27.945 56.9814 26.3204 56.9814 24.4839C56.9814 21.0228 57.9732 18.1975 60.0276 16.0078C62.0111 13.8181 64.703 12.688 67.9617 12.688C71.0786 12.688 73.6289 13.7475 75.6124 15.7959C77.6668 17.9856 78.6585 20.7403 78.6585 24.2014ZM74.0539 24.272C74.0539 23.1419 73.9122 21.9411 73.6997 20.7403C73.4872 19.4689 73.133 18.4094 72.708 17.5618C72.2121 16.6435 71.5745 15.8665 70.7953 15.3015C70.016 14.7364 69.0951 14.4538 67.9617 14.4538C66.8282 14.4538 65.8365 14.7364 64.9864 15.3015C64.1363 15.8665 63.4987 16.6435 63.0029 17.6324C62.507 18.5506 62.1528 19.6102 62.0111 20.7403C61.7986 21.9411 61.6569 23.0712 61.6569 24.1308C61.6569 25.5435 61.7986 26.8855 62.0111 28.0863C62.2236 29.2871 62.6487 30.4172 63.1445 31.3355C63.6404 32.2537 64.278 33.0307 65.0572 33.5958C65.8365 34.1609 66.7574 34.4434 67.8908 34.4434C69.7327 34.4434 71.2203 33.5251 72.3538 31.7593C73.4872 29.9228 74.0539 27.4506 74.0539 24.272Z" fill="#1D1D1B"/>
<path d="M98.2103 16.2197C98.2103 16.9967 97.9978 17.6324 97.6436 18.2681C97.2894 18.9038 96.7227 19.1864 95.9434 19.1864C95.0934 19.1864 94.4558 18.9745 94.0308 18.5507C93.6057 18.1268 93.3932 17.6324 93.3932 17.138C93.3932 16.7848 93.3932 16.5023 93.464 16.2197C93.5349 15.9372 93.5349 15.6546 93.6057 15.4427C92.8973 15.4427 92.0472 15.7253 91.1263 16.2904C90.2054 16.8554 89.3553 17.6324 88.7177 18.6919V31.5474C88.7177 32.0418 88.7886 32.4656 89.0011 32.8188C89.2136 33.172 89.497 33.3839 89.922 33.5251C90.2762 33.6664 90.7721 33.8077 91.3388 33.8783C91.9056 33.949 92.4723 34.0196 92.8973 34.0196V35.5029H81.2087V34.0196C81.5629 34.0196 81.9171 33.949 82.2713 33.949C82.6255 33.949 82.9797 33.8783 83.1922 33.7371C83.6173 33.5958 83.9006 33.3839 84.1131 33.0307C84.3257 32.6775 84.3965 32.2537 84.3965 31.6887V18.1268C84.3965 17.6324 84.2548 17.2086 84.0423 16.7848C83.8298 16.361 83.5464 16.0078 83.1214 15.7253C82.838 15.5134 82.4838 15.4427 82.1296 15.3015C81.7754 15.2308 81.3504 15.1602 80.8545 15.1602V13.6769L88.2219 13.1824L88.5052 13.465V16.5729H88.6469C89.5678 15.3721 90.6304 14.4539 91.7639 13.8181C92.8973 13.1824 93.9599 12.8999 94.8808 12.8999C95.8018 12.8999 96.581 13.1824 97.1477 13.8181C97.927 14.3832 98.2103 15.2308 98.2103 16.2197Z" fill="#1D1D1B"/>
<path d="M125.98 12.3348H124.421C124.28 11.7697 124.067 11.134 123.713 10.4277C123.359 9.72133 122.934 9.01499 122.509 8.30864C122.084 7.6023 121.588 7.03722 121.021 6.47215C120.454 5.97771 119.958 5.69517 119.463 5.5539C118.967 5.48327 118.4 5.48327 117.692 5.41263C116.983 5.41263 116.346 5.342 115.708 5.342H114.433V30.7704C114.433 31.2648 114.504 31.6886 114.716 32.1124C114.929 32.5362 115.283 32.8188 115.85 33.0307C116.133 33.1013 116.7 33.2426 117.55 33.4545C118.4 33.6664 119.108 33.737 119.533 33.737V35.291H104.515V33.737C104.94 33.737 105.578 33.6664 106.428 33.5251C107.278 33.4545 107.916 33.3132 108.199 33.172C108.695 32.9601 109.049 32.6775 109.262 32.3243C109.474 31.9712 109.616 31.4767 109.616 30.841V5.48327H108.411C107.916 5.48327 107.349 5.48327 106.711 5.48327C106.003 5.48327 105.365 5.5539 104.728 5.62454C104.232 5.69517 103.736 5.97771 103.169 6.54278C102.673 7.03722 102.177 7.67293 101.682 8.37928C101.257 9.08562 100.832 9.79197 100.477 10.4983C100.123 11.2753 99.9106 11.8404 99.7689 12.3348H98.2104V3.71741H125.98V12.3348Z" fill="#1D1D1B"/>
<path d="M147.019 30.276C146.098 32.0418 144.823 33.4545 143.265 34.514C141.706 35.5736 139.935 36.068 137.881 36.068C136.11 36.068 134.551 35.7855 133.205 35.1498C131.859 34.514 130.797 33.6664 129.876 32.6069C129.026 31.5474 128.388 30.276 127.963 28.8633C127.538 27.4506 127.326 25.8966 127.326 24.3427C127.326 22.93 127.538 21.5173 128.034 20.1046C128.459 18.6919 129.168 17.4912 130.018 16.361C130.868 15.3015 131.93 14.4539 133.205 13.8182C134.481 13.1825 135.897 12.8293 137.456 12.8293C139.085 12.8293 140.431 13.1118 141.635 13.6063C142.769 14.1007 143.69 14.807 144.469 15.6547C145.177 16.5023 145.673 17.4912 146.028 18.6213C146.382 19.7515 146.523 20.9522 146.523 22.2943V23.7776H131.789C131.789 25.2609 131.93 26.5324 132.214 27.7331C132.497 28.9339 132.922 29.9228 133.56 30.8411C134.126 31.6887 134.906 32.395 135.827 32.8895C136.747 33.3839 137.881 33.6664 139.227 33.6664C140.573 33.6664 141.706 33.3839 142.698 32.7482C143.69 32.1125 144.611 30.9823 145.461 29.3577L147.019 30.276ZM142.06 21.8705C142.06 21.0229 141.99 20.1753 141.848 19.1864C141.706 18.2681 141.494 17.4205 141.14 16.7848C140.785 16.0785 140.289 15.5134 139.723 15.0896C139.156 14.6658 138.377 14.4539 137.385 14.4539C135.827 14.4539 134.481 15.0896 133.489 16.4316C132.426 17.7031 131.859 19.5396 131.789 21.8705H142.06Z" fill="#1D1D1B"/>
<path d="M159.204 36.068C156.016 36.068 153.466 35.0084 151.695 32.8894C149.853 30.7704 149.003 27.945 149.003 24.3426C149.003 22.7887 149.215 21.3054 149.711 19.9633C150.207 18.6213 150.916 17.4205 151.837 16.2903C152.687 15.2308 153.82 14.3832 155.166 13.7475C156.512 13.1118 157.929 12.7586 159.487 12.7586C161.683 12.7586 163.454 13.253 164.8 14.3126C166.146 15.3721 166.855 16.7848 166.855 18.5506C166.855 19.3276 166.642 19.9633 166.288 20.5284C165.934 21.0935 165.367 21.376 164.517 21.376C163.667 21.376 162.958 21.1641 162.463 20.7403C161.967 20.3165 161.754 19.822 161.754 19.257C161.754 18.6213 161.825 17.9149 162.037 17.2086C162.25 16.5022 162.321 16.0078 162.321 15.6546C162.038 15.1602 161.683 14.8776 161.117 14.7364C160.621 14.5951 159.983 14.5245 159.416 14.5245C158.708 14.5245 158 14.6657 157.362 14.9483C156.724 15.2308 156.087 15.7959 155.449 16.6435C154.883 17.4205 154.458 18.4094 154.103 19.6808C153.749 20.9522 153.608 22.4355 153.608 24.2014C153.608 26.9561 154.245 29.2164 155.449 30.9823C156.654 32.7481 158.283 33.5958 160.266 33.5958C161.683 33.5958 162.958 33.2426 163.879 32.5362C164.871 31.8299 165.792 30.7704 166.571 29.3577L167.988 30.2759C166.996 32.0418 165.721 33.4545 164.092 34.4434C162.604 35.5029 160.904 36.068 159.204 36.068Z" fill="#1D1D1B"/>
<path d="M193.349 35.4323H182.439V33.9489C182.794 33.9489 183.148 33.8783 183.573 33.8783C183.998 33.8783 184.352 33.8077 184.635 33.6664C185.061 33.5251 185.344 33.3132 185.556 32.9601C185.769 32.6069 185.84 32.1831 185.84 31.618V20.3871C185.84 18.8332 185.486 17.6324 184.706 16.7848C183.998 15.9372 183.077 15.5134 182.014 15.5134C181.235 15.5134 180.527 15.6546 179.818 15.8665C179.181 16.0784 178.543 16.4316 178.047 16.7848C177.551 17.138 177.126 17.5618 176.843 17.9149C176.56 18.2681 176.347 18.6213 176.205 18.8332V31.5474C176.205 32.0418 176.276 32.4656 176.489 32.8188C176.701 33.172 176.985 33.3839 177.41 33.5958C177.764 33.737 178.047 33.8783 178.402 33.9489C178.756 34.0196 179.11 34.0902 179.535 34.0902V35.5735H168.696V34.0902C169.051 34.0902 169.405 34.0196 169.759 34.0196C170.113 33.9489 170.467 33.9489 170.68 33.8783C171.105 33.737 171.388 33.5251 171.601 33.172C171.813 32.8188 171.884 32.395 171.884 31.8299V5.97772C171.884 5.48328 171.743 4.98884 171.53 4.42377C171.318 3.92932 170.963 3.50552 170.609 3.29362C170.326 3.08171 169.83 2.94044 169.192 2.86981C168.484 2.79917 167.988 2.72854 167.563 2.72854V1.31585L175.78 0.821411L176.064 1.17458V16.5729H176.135C176.631 16.0784 177.056 15.6546 177.481 15.2308C177.906 14.8777 178.402 14.4539 179.11 14.03C179.677 13.6769 180.385 13.3943 181.093 13.1118C181.873 12.8999 182.723 12.7586 183.715 12.7586C185.698 12.7586 187.186 13.3943 188.248 14.5951C189.311 15.8665 189.878 17.6324 189.878 19.9633V31.5474C189.878 32.0418 189.948 32.4656 190.161 32.8188C190.374 33.172 190.657 33.3839 191.082 33.5958C191.436 33.737 191.719 33.8077 192.003 33.8783C192.286 33.9489 192.64 34.0196 193.065 34.0196V35.4323H193.349Z" fill="#1D1D1B"/>
</g>
<defs>
<clipPath id="clip0">
<rect width="194.527" height="36.0235" fill="white" transform="translate(0.734375 0.468262)"/>
</clipPath>
</defs>
</svg>
