<svg width="289" height="91" viewBox="0 0 289 91" fill="none" xmlns="http://www.w3.org/2000/svg">
<g clip-path="url(#clip0_1_2)">
<mask id="mask0_1_2" style="mask-type:luminance" maskUnits="userSpaceOnUse" x="0" y="0" width="289" height="91">
<path d="M289 0H0V91H289V0Z" fill="white"/>
</mask>
<g mask="url(#mask0_1_2)">
<path d="M215.013 57.3091H210.15V22.5763H215.013V57.3091Z" fill="#888A8D"/>
<path d="M227.135 53.5639H243.149V57.3091H222.655V22.5763H227.135V53.5639Z" fill="#888A8D"/>
<path d="M253.222 57.3091H249.054V22.5763H253.222V57.3091Z" fill="white"/>
<path d="M280.982 48.2442H266.427L263.157 57.3091H258.433L271.7 22.5763H275.709L289 57.3091H284.299L280.982 48.2442ZM267.811 44.475H279.622L273.705 28.2299L267.811 44.475Z" fill="white"/>
<path d="M194.083 81.998C194.032 87.7612 190.643 90.6982 184.924 90.652C178.87 90.6041 175.361 87.9408 175.415 81.8483L175.437 67.3817H178.569L178.442 81.8722C178.408 85.8241 180.742 88.1485 184.778 88.1808C188.646 88.2117 190.852 86.0892 190.888 81.9723L190.877 67.3817H194.172C194.172 67.3817 194.172 71.923 194.147 74.7527C194.122 77.5824 194.083 81.998 194.083 81.998Z" fill="#888A8D"/>
<path d="M199.062 67.3817L202.062 67.4078L209.48 87.716L217.223 67.5411L220.223 67.5672L220.038 90.6527L217.985 90.6346L218.144 70.7279L210.562 90.5693L208.51 90.5513L201.247 70.5792L201.088 90.4863L199.035 90.4683L199.219 67.3835L199.062 67.3817Z" fill="white"/>
<path d="M235.432 67.3821C242.44 67.4411 245.979 73.0477 245.927 79.2801C245.876 85.513 242.243 91.0591 235.235 90.9997C228.227 90.9407 224.688 85.3341 224.74 79.1016C224.792 72.8695 228.424 67.3234 235.432 67.3821ZM235.25 89.1957C241.117 89.2453 243.768 84.1827 243.809 79.2624C243.85 74.3418 241.447 69.2371 235.417 69.1861C229.387 69.1354 226.9 74.1991 226.858 79.1193C226.817 84.0399 229.22 89.1446 235.25 89.1957Z" fill="white"/>
<path d="M249.594 67.729L252.075 67.7498L265.15 87.1693L265.313 67.8606L267.464 67.8784L267.272 90.6527L264.79 90.6322L251.715 71.2127L251.553 90.5217L249.401 90.5037L249.594 67.729Z" fill="white"/>
<path d="M272.965 83.29C272.759 87.9449 276.256 89.4707 280.434 89.5054C282.774 89.5249 286.629 88.2266 286.657 84.9006C286.68 82.2407 284.014 81.2203 282.013 80.7048L276.843 79.3312C274.175 78.6435 271.679 77.2923 271.708 73.8007C271.728 71.4729 273.267 67.3278 279.785 67.3824C284.298 67.4199 288.288 69.9477 288.248 74.6037L286.076 74.5856C285.938 71.0922 283.112 69.2392 279.77 69.2111C276.762 69.1864 273.911 70.3267 273.882 73.6527C273.864 75.8145 275.529 76.6592 277.363 77.1736L283.034 78.5518C286.369 79.4107 289.031 80.9296 289 84.588C288.987 86.0843 288.276 91.0674 280.087 90.9993C274.572 90.9535 270.582 88.4253 270.963 82.9406L272.968 82.9576L272.965 83.29Z" fill="white"/>
<path d="M52.4212 58.8916H41.6035L41.6716 50.9899H52.4212C55.1059 50.9899 57.3693 50.3932 59.2123 49.2001C61.0551 47.9845 62.4427 46.2173 63.3754 43.8985C64.331 41.5797 64.8089 38.7771 64.8089 35.4904V33.0927C64.8089 30.5713 64.5359 28.3539 63.9899 26.4404C63.4664 24.5269 62.6817 22.9173 61.6351 21.6116C60.5886 20.3059 59.3033 19.3266 57.7788 18.6737C56.2546 17.9984 54.5029 17.6607 52.5237 17.6607H41.3985V9.72522H52.5237C55.8451 9.72522 58.8823 10.288 61.6351 11.4136C64.4109 12.5167 66.8107 14.1038 68.8355 16.1749C70.8606 18.246 72.4188 20.7223 73.5109 23.6039C74.6255 26.4629 75.1831 29.6483 75.1831 33.1602V35.4904C75.1831 38.9796 74.6255 42.165 73.5109 45.0464C72.4188 47.9282 70.8606 50.4043 68.8355 52.4754C66.8337 54.524 64.4334 56.1113 61.6351 57.2369C58.8594 58.3401 55.7884 58.8916 52.4212 58.8916ZM47.4047 9.72522V58.8916H37.1671V9.72522H47.4047Z" fill="white"/>
<path d="M99.0024 59.5668C96.136 59.5668 93.5653 59.1167 91.2901 58.216C89.0149 57.2932 87.0812 56.0213 85.4889 54.4003C83.9188 52.7793 82.7132 50.8996 81.8715 48.7611C81.0295 46.6 80.6089 44.3038 80.6089 41.8725V40.5217C80.6089 37.7525 81.007 35.2201 81.8031 32.9238C82.5996 30.6276 83.7368 28.6353 85.2159 26.9469C86.7171 25.2585 88.5373 23.964 90.676 23.0636C92.8143 22.1406 95.226 21.6791 97.9103 21.6791C100.527 21.6791 102.847 22.1068 104.872 22.9622C106.897 23.8177 108.592 25.0334 109.957 26.6092C111.345 28.185 112.391 30.0761 113.096 32.2822C113.802 34.4659 114.154 36.897 114.154 39.576V43.6283H84.8063V37.1447H104.497V36.4021C104.497 35.0513 104.246 33.8468 103.746 32.7888C103.268 31.7082 102.54 30.8527 101.562 30.2224C100.584 29.5921 99.3324 29.2769 97.8082 29.2769C96.5112 29.2769 95.3965 29.5583 94.4639 30.1211C93.5309 30.6839 92.7688 31.4718 92.1772 32.4848C91.6086 33.4979 91.1765 34.691 90.8805 36.0641C90.6075 37.4149 90.471 38.9008 90.471 40.5217V41.8725C90.471 43.3358 90.676 44.6862 91.0855 45.9244C91.5176 47.1627 92.1206 48.2321 92.8942 49.1324C93.6903 50.033 94.6459 50.7308 95.7605 51.2261C96.8981 51.7213 98.1833 51.969 99.6169 51.969C101.391 51.969 103.041 51.6314 104.565 50.9558C106.112 50.2581 107.443 49.2112 108.558 47.8156L113.335 52.9481C112.562 54.0512 111.504 55.1095 110.162 56.1223C108.842 57.1355 107.25 57.9684 105.384 58.6214C103.518 59.2518 101.391 59.5668 99.0024 59.5668Z" fill="white"/>
<path d="M136.746 59.5668C133.879 59.5668 131.308 59.1167 129.033 58.216C126.758 57.2932 124.824 56.0213 123.232 54.4003C121.662 52.7793 120.456 50.8996 119.615 48.7611C118.773 46.6 118.352 44.3038 118.352 41.8725V40.5217C118.352 37.7525 118.75 35.2201 119.546 32.9238C120.343 30.6276 121.48 28.6353 122.959 26.9469C124.46 25.2585 126.281 23.964 128.419 23.0636C130.557 22.1406 132.969 21.6791 135.654 21.6791C138.27 21.6791 140.591 22.1068 142.615 22.9622C144.64 23.8177 146.335 25.0334 147.7 26.6092C149.088 28.185 150.134 30.0761 150.84 32.2822C151.545 34.4659 151.898 36.897 151.898 39.576V43.6283H122.55V37.1447H142.24V36.4021C142.24 35.0513 141.99 33.8468 141.489 32.7888C141.012 31.7082 140.283 30.8527 139.305 30.2224C138.327 29.5921 137.076 29.2769 135.551 29.2769C134.254 29.2769 133.14 29.5583 132.207 30.1211C131.274 30.6839 130.512 31.4718 129.92 32.4848C129.352 33.4979 128.92 34.691 128.624 36.0641C128.351 37.4149 128.214 38.9008 128.214 40.5217V41.8725C128.214 43.3358 128.419 44.6862 128.829 45.9244C129.261 47.1627 129.864 48.2321 130.637 49.1324C131.434 50.033 132.389 50.7308 133.504 51.2261C134.641 51.7213 135.927 51.969 137.36 51.969C139.134 51.969 140.784 51.6314 142.308 50.9558C143.855 50.2581 145.186 49.2112 146.301 47.8156L151.079 52.9481C150.305 54.0512 149.247 55.1095 147.905 56.1223C146.585 57.1355 144.993 57.9684 143.127 58.6214C141.262 59.2518 139.134 59.5668 136.746 59.5668Z" fill="white"/>
<path d="M167.322 29.3782V90.3053H157.494V22.3544H166.606L167.322 29.3782ZM190.698 40.2178V40.9267C190.698 43.5831 190.38 46.0484 189.743 48.322C189.129 50.5956 188.219 52.5768 187.013 54.2652C185.807 55.931 184.306 57.2369 182.508 58.1823C180.734 59.1052 178.686 59.5668 176.366 59.5668C174.113 59.5668 172.157 59.1166 170.496 58.216C168.835 57.3158 167.436 56.055 166.299 54.434C165.184 52.7908 164.285 50.8884 163.602 48.7274C162.92 46.5659 162.397 44.2475 162.033 41.7711V39.9139C162.397 37.2575 162.92 34.8263 163.602 32.6199C164.285 30.3912 165.184 28.4664 166.299 26.8456C167.436 25.2022 168.824 23.9303 170.462 23.0298C172.122 22.1293 174.068 21.6791 176.297 21.6791C178.641 21.6791 180.7 22.1181 182.474 22.996C184.271 23.874 185.773 25.1346 186.978 26.778C188.207 28.4214 189.129 30.38 189.743 32.6537C190.38 34.9273 190.698 37.4486 190.698 40.2178ZM180.836 40.9267V40.2178C180.836 38.6642 180.7 37.235 180.427 35.929C180.176 34.601 179.767 33.4416 179.198 32.451C178.652 31.4605 177.924 30.6951 177.014 30.1548C176.127 29.592 175.046 29.3106 173.772 29.3106C172.43 29.3106 171.281 29.5245 170.325 29.9522C169.393 30.38 168.63 30.999 168.039 31.8095C167.447 32.6199 167.004 33.5879 166.708 34.7135C166.412 35.8391 166.23 37.111 166.162 38.5295V43.2229C166.276 44.889 166.594 46.386 167.117 47.7142C167.641 49.0198 168.448 50.0556 169.541 50.8207C170.632 51.5862 172.066 51.969 173.84 51.969C175.137 51.969 176.229 51.6876 177.116 51.1246C178.003 50.5394 178.72 49.7402 179.266 48.7274C179.835 47.7142 180.233 46.5437 180.461 45.2155C180.711 43.887 180.836 42.4577 180.836 40.9267Z" fill="white"/>
<path fill-rule="evenodd" clip-rule="evenodd" d="M31.1993 9.72522L26.4433 5.12817L24.2705 7.3757L29.9353 12.8512H37.3407V9.72522H31.1993Z" fill="white"/>
<path fill-rule="evenodd" clip-rule="evenodd" d="M23.4463 18.7557H37.3405V21.8817H23.4463V18.7557Z" fill="white"/>
<path d="M22.2308 24.3129C24.5328 24.3129 26.399 22.4469 26.399 20.145C26.399 17.8431 24.5328 15.9771 22.2308 15.9771C19.9287 15.9771 18.0625 17.8431 18.0625 20.145C18.0625 22.4469 19.9287 24.3129 22.2308 24.3129Z" fill="white"/>
<path fill-rule="evenodd" clip-rule="evenodd" d="M18.4097 29.3492H38.2089V32.4752H18.4097V29.3492Z" fill="white"/>
<path d="M16.6731 35.0801C18.9752 35.0801 20.8414 33.2141 20.8414 30.9122C20.8414 28.6103 18.9752 26.7443 16.6731 26.7443C14.371 26.7443 12.5048 28.6103 12.5048 30.9122C12.5048 33.2141 14.371 35.0801 16.6731 35.0801Z" fill="#BBBBBB"/>
<path fill-rule="evenodd" clip-rule="evenodd" d="M31.6094 39.769H37.8618V42.895H31.6094V39.769Z" fill="white"/>
<path fill-rule="evenodd" clip-rule="evenodd" d="M27.649 55.7462H37.1673V58.8722H28.3973L21.5494 62.3497L20.1338 59.5626L27.649 55.7462Z" fill="white"/>
<path fill-rule="evenodd" clip-rule="evenodd" d="M26.5049 47.7576L17.0524 41.0964L15.2515 43.6516L25.5139 50.8836H38.209V47.7576H26.5049Z" fill="white"/>
<path d="M29.178 45.4999C31.4801 45.4999 33.3463 43.6339 33.3463 41.332C33.3463 39.0301 31.4801 37.1641 29.178 37.1641C26.876 37.1641 25.0098 39.0301 25.0098 41.332C25.0098 43.6339 26.876 45.4999 29.178 45.4999Z" fill="#868686"/>
<path d="M20.494 65.2977C22.7961 65.2977 24.6623 63.4316 24.6623 61.1297C24.6623 58.8278 22.7961 56.9618 20.494 56.9618C18.1919 56.9618 16.3257 58.8278 16.3257 61.1297C16.3257 63.4316 18.1919 65.2977 20.494 65.2977Z" fill="#B9B9B9"/>
<path d="M15.9784 46.5419C18.2804 46.5419 20.1466 44.6759 20.1466 42.374C20.1466 40.0721 18.2804 38.2061 15.9784 38.2061C13.6763 38.2061 11.8101 40.0721 11.8101 42.374C11.8101 44.6759 13.6763 46.5419 15.9784 46.5419Z" fill="white"/>
<path d="M5.90505 25.7023C8.20713 25.7023 10.0733 23.8363 10.0733 21.5344C10.0733 19.2325 8.20713 17.3665 5.90505 17.3665C3.60298 17.3665 1.73679 19.2325 1.73679 21.5344C1.73679 23.8363 3.60298 25.7023 5.90505 25.7023Z" fill="#818181"/>
<path d="M4.16827 41.3321C6.47034 41.3321 8.33654 39.466 8.33654 37.1642C8.33654 34.8623 6.47034 32.9962 4.16827 32.9962C1.8662 32.9962 0 34.8623 0 37.1642C0 39.466 1.8662 41.3321 4.16827 41.3321Z" fill="white"/>
<path d="M12.5047 14.5878C14.8068 14.5878 16.673 12.7218 16.673 10.4199C16.673 8.118 14.8068 6.25195 12.5047 6.25195C10.2026 6.25195 8.33643 8.118 8.33643 10.4199C8.33643 12.7218 10.2026 14.5878 12.5047 14.5878Z" fill="white"/>
<path d="M10.0735 56.9619C12.3756 56.9619 14.2418 55.0958 14.2418 52.7939C14.2418 50.492 12.3756 48.626 10.0735 48.626C7.77147 48.626 5.90527 50.492 5.90527 52.7939C5.90527 55.0958 7.77147 56.9619 10.0735 56.9619Z" fill="white"/>
<path d="M23.9676 8.33588C26.2696 8.33588 28.1358 6.46983 28.1358 4.16794C28.1358 1.86605 26.2696 0 23.9676 0C21.6655 0 19.7993 1.86605 19.7993 4.16794C19.7993 6.46983 21.6655 8.33588 23.9676 8.33588Z" fill="#A6A6A6"/>
<path d="M195.075 28.2726C196.047 27.3464 196.951 26.2349 197.784 24.9382C198.572 23.6415 199.081 22.3448 199.313 21.0481C197.506 21.0481 196.001 20.5619 194.797 19.5894C193.593 18.6168 192.991 17.2507 192.991 15.4909C192.991 13.7774 193.547 12.3418 194.658 11.184C195.77 10.0726 197.205 9.51685 198.965 9.51685C200.679 9.51685 202.091 10.0957 203.203 11.2535C204.315 12.4576 204.87 13.9163 204.87 15.6298C204.87 18.5011 204.152 21.2565 202.717 23.8962C201.235 26.5822 199.359 28.6662 197.09 30.1481L195.075 28.2726Z" fill="#B4B4B4"/>
</g>
</g>
<defs>
<clipPath id="clip0_1_2">
<rect width="289" height="91" fill="white"/>
</clipPath>
</defs>
</svg>
