<svg width="180" height="61" viewBox="0 0 180 61" fill="none" xmlns="http://www.w3.org/2000/svg">
<g clip-path="url(#clip0)">
<path d="M29.8124 20.132L30.3408 29.0321L58.235 41.5525L54.2339 17.0773L28.7178 0.25769L29.133 7.68698L50.8368 20.8485L52.4976 31.7473L29.8124 20.132Z" fill="#A6BFE1"/>
<path d="M6.52304 22.6964L29.1705 7.68701L50.8744 20.8108L40.7962 25.7888L29.8122 20.132L5.95685 33.5575L6.52304 22.6964ZM0.0307617 54.4124L5.12645 52.3005L5.69263 41.5525L30.3784 29.0321L58.2726 41.5525L34.2285 50.0755L34.7569 59.0887L29.548 60.5972L0.0307617 54.4124Z" fill="#004C93"/>
<path d="M168.603 15.0408V7.87551H165.055V26.0905H168.603V17.9447H175.171V26.0905H178.719V7.8378H175.171V15.0031H168.603V15.0408ZM161.998 8.44119C160.752 7.76238 159.356 7.38525 157.921 7.38525C152.561 7.38525 148.9 11.9484 148.9 17.115C148.9 22.1307 152.712 26.5807 157.846 26.5807C159.318 26.5807 160.639 26.1282 161.998 25.4871V21.2633C161.017 22.3947 159.469 23.1866 157.959 23.1866C154.637 23.1866 152.599 20.132 152.599 17.0396C152.599 13.9095 154.562 10.7416 157.959 10.7416C159.469 10.7416 160.979 11.4582 161.96 12.665V8.44119H161.998ZM147.013 10.9302V7.8378H137.576V26.0528H147.013V22.9604H141.124V18.0578H146.786V14.9654H141.124V10.9302H147.013ZM132.141 10.9302H135.802V7.8378H124.894V10.9302H128.555V26.0528H132.103V10.9302H132.141ZM114.853 17.7184V26.0905H118.401V17.7184L124.177 7.8378H120.025L116.552 14.1734L113.344 7.8378H109.192L114.853 17.7184ZM106.059 7.8378H102.51V26.0528H111.117V22.9604H106.096V7.8378H106.059ZM90.9603 10.8925C94.0932 10.8925 96.3202 13.8717 96.3202 16.8133C96.3202 19.5663 93.9799 23.0735 90.9603 23.0735C87.9406 23.0735 85.6004 19.5663 85.6004 16.8133C85.6381 13.834 87.8651 10.8925 90.9603 10.8925ZM90.9603 26.5807C96.2824 26.5807 99.9815 22.1684 99.9815 16.9641C99.9815 11.873 96.2824 7.38525 90.9603 7.38525C85.6381 7.38525 81.939 11.873 81.939 16.9641C81.939 22.1684 85.6381 26.5807 90.9603 26.5807ZM72.9933 10.8171H73.6349C75.6355 10.8171 76.9566 11.1565 76.9566 13.4946C76.9566 15.8705 75.8242 16.323 73.7104 16.323H72.9933V10.8171ZM72.9933 19.2646H74.7673C78.5042 19.2646 80.6179 17.379 80.6179 13.4946C80.6179 9.34628 78.1267 7.8378 74.3144 7.8378H69.4829V26.0528H73.031V19.2646H72.9933Z" fill="#004C93"/>
<path d="M178.417 36.1219C176.832 34.4249 173.661 33.3312 171.359 33.3312C167.018 33.3312 163.847 36.6876 163.847 40.8359C163.847 44.7203 166.263 46.3419 169.585 47.6618C171.585 48.4161 174.077 49.1703 174.077 51.7348C174.077 53.6581 172.793 55.3551 170.755 55.3551C168.603 55.3551 166.792 53.6204 166.112 51.697L162.866 54.7894C164.64 57.6933 167.245 59.6543 170.793 59.6543C176.077 59.6543 179.285 56.1094 179.285 51.0937C179.285 42.6838 169.056 44.4563 169.056 40.2326C169.056 38.6109 170.604 37.4041 172.189 37.4041C173.85 37.4041 175.096 38.1961 176.039 39.4783L178.417 36.1219ZM133.915 59.0132H138.935V42.005H139.011L152.599 59.5035H156.223V33.9723H151.203V50.792H151.127L137.539 33.2935H133.915V59.0132ZM114.249 38.1207C118.666 38.1207 121.799 42.1936 121.799 46.2665C121.799 50.0377 118.515 54.8649 114.249 54.8649C109.984 54.8649 106.7 50.0377 106.7 46.2665C106.7 42.2313 109.833 38.1207 114.249 38.1207ZM114.249 59.6543C121.761 59.6543 127.007 53.6204 127.007 46.4551C127.007 39.4406 121.761 33.2935 114.249 33.2935C106.738 33.2935 101.491 39.4406 101.491 46.4551C101.491 53.6204 106.7 59.6543 114.249 59.6543ZM91.2622 59.0132H96.3201L92.4701 33.3312H88.8465L82.7694 49.8114L76.3903 33.3312H72.8422L68.5015 59.0132H73.5594L75.8619 43.4758H75.9374L81.5993 59.3526H83.3356L89.1862 43.4758H89.2617L91.2622 59.0132Z" fill="#004C93"/>
</g>
<defs>
<clipPath id="clip0">
<rect width="179.217" height="60.3394" fill="white" transform="translate(0.0307617 0.25769)"/>
</clipPath>
</defs>
</svg>
