<svg width="33" height="32" viewBox="0 0 33 32" fill="none" xmlns="http://www.w3.org/2000/svg">
<g clip-path="url(#clip0)">
<path d="M16.4998 0C7.79441 0 0.734863 7.05954 0.734863 15.765C0.734863 24.4704 7.79441 31.5299 16.4998 31.5299C25.2052 31.5299 32.2648 24.4704 32.2648 15.765C32.2648 7.05954 25.2052 0 16.4998 0ZM23.6979 12.2918C23.7049 12.447 23.7083 12.6029 23.7083 12.7595C23.7083 17.541 20.0687 23.0547 13.4128 23.055H13.413H13.4128C11.3693 23.055 9.4677 22.456 7.86633 21.4295C8.14946 21.463 8.43765 21.4796 8.72944 21.4796C10.4249 21.4796 11.9851 20.9013 13.2237 19.9306C11.6397 19.9013 10.3041 18.8551 9.84321 17.4173C10.0638 17.4597 10.2906 17.4828 10.5233 17.4828C10.8535 17.4828 11.1735 17.4383 11.4775 17.3553C9.8218 17.0238 8.57452 15.5605 8.57452 13.8083C8.57452 13.7919 8.57452 13.7773 8.575 13.7621C9.06261 14.0332 9.62021 14.1963 10.2139 14.2146C9.2423 13.5663 8.60363 12.4581 8.60363 11.2026C8.60363 10.5396 8.78284 9.91853 9.09364 9.38378C10.8781 11.5733 13.5449 13.0133 16.5523 13.1646C16.4902 12.8995 16.4582 12.6233 16.4582 12.3395C16.4582 10.3419 18.0788 8.72129 20.0771 8.72129C21.118 8.72129 22.0581 9.16126 22.7184 9.86464C23.5428 9.70203 24.3169 9.40086 25.0162 8.98638C24.7455 9.83097 24.1721 10.5396 23.4249 10.9878C24.1569 10.9002 24.8545 10.7061 25.5028 10.4179C25.0186 11.1437 24.4044 11.7811 23.6979 12.2918Z" fill="#ACACAC"/>
</g>
<defs>
<clipPath id="clip0">
<rect width="31.5299" height="31.5299" fill="white" transform="translate(0.734863)"/>
</clipPath>
</defs>
</svg>
