<svg width="127" height="33" viewBox="0 0 127 33" fill="none" xmlns="http://www.w3.org/2000/svg">
<g clip-path="url(#clip0)">
<path d="M20.7309 17.0581C20.7309 23.5691 16.9956 26.9176 10.6456 26.9176C3.92206 26.9176 0 23.9412 0 17.0581V0.6875H3.36176V17.0581C3.36176 21.5228 5.97647 24.1272 10.4588 24.1272C14.7544 24.1272 17.1824 21.7088 17.1824 17.0581V0.6875H20.5441V17.0581H20.7309Z" fill="#888A8D"/>
<path d="M25.9604 0.6875H29.509L38.4737 23.1971L47.4384 0.6875H50.9869V26.3596H48.559V4.22206L39.781 26.3596H37.3531L28.5752 4.22206V26.3596H26.1472V0.6875H25.9604Z" fill="#BD0E3A"/>
<path d="M66.8619 0.12941C74.8928 0.12941 79.0016 6.45441 79.0016 13.5235C79.0016 20.5926 74.8928 26.9176 66.8619 26.9176C58.831 26.9176 54.7222 20.5926 54.7222 13.5235C54.7222 6.45441 58.831 0.12941 66.8619 0.12941ZM66.8619 24.8713C73.5854 24.8713 76.5736 19.1044 76.5736 13.5235C76.5736 7.94264 73.7722 2.17573 66.8619 2.17573C59.9516 2.17573 57.1501 7.94264 57.1501 13.5235C57.1501 19.1044 59.9516 24.8713 66.8619 24.8713Z" fill="#BD0E3A"/>
<path d="M82.7368 0.6875H85.5383L100.479 22.4529V0.6875H102.907V26.3596H100.106L85.1648 4.59412V26.3596H82.7368V0.6875Z" fill="#BD0E3A"/>
<path d="M109.258 17.8022C109.071 23.011 112.993 24.6853 117.662 24.6853C120.277 24.6853 124.572 23.1971 124.572 19.4765C124.572 16.5 121.584 15.3838 119.343 14.8257L113.553 13.3375C110.565 12.5934 107.763 11.1051 107.763 7.19852C107.763 4.59411 109.444 -0.0566254 116.728 -0.0566254C121.771 -0.0566254 126.253 2.73382 126.253 7.94264H123.825C123.638 4.03602 120.463 1.9897 116.728 1.9897C113.366 1.9897 110.191 3.2919 110.191 7.01249C110.191 9.43087 112.059 10.361 114.113 10.9191L120.463 12.4073C124.199 13.3375 127.187 15.0118 127.187 19.1044C127.187 20.7787 126.44 26.3596 117.288 26.3596C111.125 26.3596 106.643 23.5691 107.016 17.4301H109.258V17.8022Z" fill="#BD0E3A"/>
<path d="M0 30.6382H20.7309V32.8706H0V30.6382Z" fill="#BD0E3A"/>
</g>
<defs>
<clipPath id="clip0">
<rect width="127" height="33" fill="white"/>
</clipPath>
</defs>
</svg>
