<svg width="512" height="336" viewBox="0 0 512 336" fill="none" xmlns="http://www.w3.org/2000/svg">
<path d="M473.7 335.4H38.3C17.2 335.4 0 318.3 0 297.1V38.3C0 17.1 17.2 0 38.3 0H473.6C494.8 0 511.9 17.2 511.9 38.3V297.1C512 318.3 494.8 335.4 473.7 335.4Z" fill="#FFE15A"/>
<path d="M38.3 0C17.2 0 0 17.1 0 38.3V297.1C0 318.3 17.2 335.4 38.3 335.4H170.6V0H38.3Z" fill="#464655"/>
<path d="M473.7 0H341.3V335.4H473.6C494.8 335.4 511.9 318.2 511.9 297.1V38.3C512 17.1 494.8 0 473.7 0Z" fill="#FF4B55"/>
<path d="M15.4234 327.368C21.7741 332.032 29.6143 334.787 38.0982 334.787H473.408C494.585 334.787 511.753 317.62 511.753 296.442V222.971L170.5 222.971L15.4234 327.368Z" fill="#41479B"/>
<path d="M170.5 222.963H511.753V111.153H341L170.5 222.963Z" fill="#F5F5F5"/>
</svg>
