<svg width="512" height="336" viewBox="0 0 512 336" fill="none" xmlns="http://www.w3.org/2000/svg">
<path d="M473.655 0.000976562H38.345C17.167 0.000976562 0 17.168 0 38.346V297.105C0 318.282 17.167 335.45 38.345 335.45H473.655C494.832 335.45 512 318.283 512 297.105V38.346C512 17.168 494.833 0.000976562 473.655 0.000976562Z" fill="#41479B"/>
<path d="M511.469 32.007C508.447 13.848 492.672 0 473.655 0H463.678L300.138 107.147V0.000999451H211.862V107.148L48.322 0.000999451H38.345C19.328 0.000999451 3.553 13.848 0.531 32.008L140.309 123.588H0V211.864H140.309L0.531 303.442C3.553 321.601 19.328 335.449 38.345 335.449H48.322L211.862 228.302V335.449H300.138V228.302L463.678 335.449H473.655C492.672 335.449 508.447 321.602 511.469 303.442L371.691 211.862H512V123.586H371.691L511.469 32.007Z" fill="#F5F5F5"/>
<path d="M282.483 0.000976562H229.517V141.242H0V194.208H229.517V335.449H282.483V194.208H512V141.242H282.483V0.000976562Z" fill="#FF4B55"/>
<path d="M24.793 332.977L211.376 211.863H178.948L9.224 322.035C13.377 326.882 18.714 330.68 24.793 332.977Z" fill="#FF4B55"/>
<path d="M346.388 211.863H313.96L494.676 329.168C499.733 325.847 503.953 321.361 506.963 316.093L346.388 211.863Z" fill="#FF4B55"/>
<path d="M4.04901 21.2L161.779 123.587H194.207L15.475 7.56699C10.676 11.139 6.74901 15.809 4.04901 21.2Z" fill="#FF4B55"/>
<path d="M332.566 123.587L502.601 13.212C498.402 8.38099 493.023 4.60499 486.902 2.35199L300.138 123.587H332.566Z" fill="#FF4B55"/>
</svg>
